<svg width="521" height="480" viewBox="0 0 521 480" fill="none" xmlns="http://www.w3.org/2000/svg">
<g clip-path="url(#clip0)">
<path d="M239.038 264.792C238.944 264.792 238.885 264.79 238.865 264.789L227.678 264.79V263.143H238.905C239.165 263.152 244.469 263.302 249.355 257.38C256.637 248.555 262.617 226.709 249.752 172.75C232.454 100.193 246.882 36.0936 253.888 11.9025C254.233 10.7057 254.294 9.44509 254.068 8.22032C253.841 6.99556 253.333 5.84019 252.582 4.84551C251.832 3.85082 250.86 3.04406 249.743 2.48899C248.627 1.93392 247.396 1.64574 246.149 1.64722H79.0803C77.8101 1.64892 76.5582 1.94969 75.4262 2.5251C74.2943 3.10051 73.3141 3.93436 72.5652 4.95896C69.5974 9.03599 65.5245 16.8683 62.9758 31.0305L61.3525 30.7394C63.9564 16.2695 68.1617 8.20675 71.2311 3.99058C72.1331 2.75598 73.314 1.75121 74.6778 1.05784C76.0416 0.364476 77.5499 0.00205145 79.0803 4.4821e-06H246.149C247.652 -0.00143975 249.135 0.346156 250.48 1.01533C251.825 1.6845 252.996 2.65691 253.901 3.85575C254.805 5.05458 255.418 6.44698 255.69 7.92294C255.963 9.39891 255.888 10.918 255.472 12.3602C248.502 36.4258 234.149 100.193 251.357 172.368C264.403 227.087 258.131 249.406 250.573 258.495C245.588 264.489 240.095 264.792 239.038 264.792Z" fill="#E6E6E6"/>
<path d="M208.485 294.213C208.392 294.213 208.334 294.211 208.313 294.21L197.196 294.211V292.564H208.353C208.613 292.572 213.882 292.722 218.738 286.801C225.975 277.976 231.918 256.13 219.133 202.17C201.942 129.614 216.28 65.5145 223.242 41.3234C223.586 40.1266 223.647 38.866 223.422 37.6412C223.197 36.4165 222.691 35.2611 221.945 34.2664C221.199 33.2717 220.233 32.465 219.124 31.9099C218.014 31.3548 216.792 31.0666 215.552 31.0681H49.521C48.2587 31.0698 47.0146 31.3706 45.8897 31.946C44.7647 32.5214 43.7906 33.3553 43.0465 34.3799C40.097 38.4569 36.0495 46.2892 33.5167 60.4514L31.9033 60.1603C34.4911 45.6904 38.6703 37.6276 41.7206 33.4115C42.6171 32.1769 43.7906 31.1721 45.1459 30.4787C46.5012 29.7854 48.0002 29.4229 49.521 29.4209H215.552C217.046 29.4195 218.519 29.7671 219.856 30.4362C221.193 31.1054 222.357 32.0778 223.255 33.2766C224.154 34.4755 224.763 35.8679 225.034 37.3438C225.305 38.8198 225.231 40.3389 224.817 41.7811C217.891 65.8467 203.627 129.614 220.728 201.789C233.693 256.508 227.46 278.827 219.949 287.915C214.994 293.91 209.535 294.213 208.485 294.213Z" fill="#CCCCCC"/>
<path d="M179.024 324.861C178.931 324.861 178.872 324.858 178.852 324.857L15.2798 324.858C13.7049 324.86 12.1537 324.474 10.7617 323.735C9.36969 322.995 8.17942 321.924 7.29504 320.615C6.41066 319.307 5.85913 317.8 5.6887 316.228C5.51826 314.656 5.73414 313.066 6.31741 311.596C12.2523 296.705 20.2434 260.978 7.08135 189.011C-8.46074 104.031 5.45357 73.3189 12.1572 64.0589C13.0542 62.8243 14.2285 61.8195 15.5847 61.1262C16.9409 60.4328 18.4408 60.0704 19.9626 60.0684H186.095C187.59 60.0669 189.064 60.4145 190.402 61.0837C191.739 61.7529 192.904 62.7253 193.803 63.9241C194.702 65.1229 195.312 66.5153 195.583 67.9913C195.854 69.4673 195.78 70.9864 195.366 72.4285C188.435 96.4942 174.162 160.261 191.274 232.437C204.247 287.155 198.01 309.475 190.494 318.563C185.537 324.557 180.075 324.861 179.024 324.861ZM19.9626 61.7156C18.6995 61.7173 17.4546 62.018 16.329 62.5934C15.2033 63.1689 14.2286 64.0027 13.4839 65.0273C6.90456 74.1156 -6.73284 104.361 8.6945 188.713C21.2682 257.463 15.17 293.817 7.84006 312.208C7.34606 313.422 7.16063 314.74 7.30052 316.043C7.44041 317.346 7.90121 318.594 8.64135 319.674C9.37523 320.764 10.3643 321.657 11.5217 322.273C12.6791 322.89 13.9695 323.212 15.2797 323.211H178.892C179.15 323.223 184.424 323.37 189.283 317.449C196.525 308.624 202.471 286.778 189.678 232.818C172.477 160.262 186.823 96.162 193.79 71.9709C194.133 70.774 194.195 69.5134 193.97 68.2887C193.744 67.0639 193.238 65.9086 192.492 64.9139C191.746 63.9192 190.779 63.1124 189.669 62.5574C188.559 62.0023 187.335 61.7141 186.095 61.7156H19.9626Z" fill="#3F3D56"/>
<path d="M157.862 133.622H27.4228C25.6822 133.622 24.0129 132.976 22.7821 131.827C21.5513 130.677 20.8599 129.118 20.8599 127.493C20.8599 125.867 21.5513 124.308 22.7821 123.159C24.0129 122.009 25.6822 121.363 27.4228 121.363H157.862C159.603 121.363 161.272 122.009 162.503 123.159C163.734 124.308 164.425 125.867 164.425 127.493C164.425 129.118 163.734 130.677 162.503 131.827C161.272 132.976 159.603 133.622 157.862 133.622Z" fill="#499F68"/>
<path d="M157.862 161.818H27.4228C25.6822 161.818 24.0129 161.107 22.7821 159.843C21.5513 158.579 20.8599 156.864 20.8599 155.075C20.8599 153.287 21.5513 151.572 22.7821 150.308C24.0129 149.043 25.6822 148.333 27.4228 148.333H157.862C159.603 148.333 161.272 149.043 162.503 150.308C163.734 151.572 164.425 153.287 164.425 155.075C164.425 156.864 163.734 158.579 162.503 159.843C161.272 161.107 159.603 161.818 157.862 161.818Z" fill="#CCCCCC"/>
<path d="M157.862 190.013H27.4228C25.6822 190.013 24.0129 189.303 22.7821 188.038C21.5513 186.774 20.8599 185.059 20.8599 183.271C20.8599 181.483 21.5513 179.768 22.7821 178.503C24.0129 177.239 25.6822 176.528 27.4228 176.528H157.862C159.603 176.528 161.272 177.239 162.503 178.503C163.734 179.768 164.425 181.483 164.425 183.271C164.425 185.059 163.734 186.774 162.503 188.038C161.272 189.303 159.603 190.013 157.862 190.013Z" fill="#CCCCCC"/>
<path d="M167.678 218.208H37.2393C35.4986 218.208 33.8293 217.498 32.5985 216.234C31.3677 214.969 30.6763 213.254 30.6763 211.466C30.6763 209.678 31.3677 207.963 32.5985 206.698C33.8293 205.434 35.4986 204.724 37.2393 204.724H167.678C169.419 204.724 171.088 205.434 172.319 206.698C173.55 207.963 174.241 209.678 174.241 211.466C174.241 213.254 173.55 214.969 172.319 216.234C171.088 217.498 169.419 218.208 167.678 218.208Z" fill="#CCCCCC"/>
<path d="M167.678 246.404H37.2393C35.4986 246.404 33.8293 245.693 32.5985 244.429C31.3677 243.165 30.6763 241.45 30.6763 239.661C30.6763 237.873 31.3677 236.158 32.5985 234.894C33.8293 233.629 35.4986 232.919 37.2393 232.919H167.678C169.419 232.919 171.088 233.629 172.319 234.894C173.55 236.158 174.241 237.873 174.241 239.661C174.241 241.45 173.55 243.165 172.319 244.429C171.088 245.693 169.419 246.404 167.678 246.404Z" fill="#CCCCCC"/>
<path d="M89.1299 106.653H27.4401C25.6949 106.653 24.0212 105.942 22.7872 104.678C21.5531 103.414 20.8599 101.699 20.8599 99.9104C20.8599 98.1222 21.5531 96.4072 22.7872 95.1428C24.0212 93.8783 25.6949 93.168 27.4401 93.168H89.1299C90.875 93.168 92.5488 93.8783 93.7828 95.1428C95.0168 96.4072 95.7101 98.1222 95.7101 99.9104C95.7101 101.699 95.0168 103.414 93.7828 104.678C92.5488 105.942 90.875 106.653 89.1299 106.653Z" fill="#499F68"/>
<path d="M80.9332 291.065C82.2524 285.285 88.4506 283.39 93.5182 283.602C96.7198 283.826 99.8957 284.346 103.008 285.156C106.264 285.91 109.488 286.802 112.697 287.749C118.58 289.485 124.403 291.584 130.383 292.941C135.361 294.071 140.772 294.734 145.736 293.174C150.509 291.675 154.558 287.994 155.856 282.904C157.08 278.108 155.4 272.864 150.908 270.673C146.812 268.674 141.638 269.691 139.608 274.211C137.319 279.307 139.606 284.865 143.231 288.552C145.291 290.554 147.547 292.327 149.963 293.843C152.416 295.573 155.145 296.838 158.025 297.579C162.753 298.624 168.385 297.085 170.823 292.411C171.365 291.353 171.691 290.191 171.781 288.997C171.926 287.372 169.473 287.382 169.329 288.997C168.916 293.651 163.648 295.83 159.709 295.32C157.05 294.864 154.511 293.845 152.251 292.325C150.07 291.009 148.003 289.501 146.074 287.816C142.733 284.824 139.601 279.901 141.845 275.233C143.672 271.432 148.435 271.47 151.332 273.922C154.84 276.89 154.215 282.278 151.901 285.804C149.339 289.707 144.695 291.344 140.317 291.52C135.559 291.712 130.841 290.583 126.294 289.247C120.645 287.587 115.051 285.729 109.375 284.166C106.152 283.279 102.904 282.478 99.6232 281.855C96.5209 281.148 93.3344 280.92 90.1675 281.178C85.0513 281.789 79.8287 284.871 78.5689 290.39C78.2065 291.978 80.5701 292.655 80.9332 291.065L80.9332 291.065Z" fill="#3F3D56"/>
<path d="M332.549 430.577C332.691 446.732 333.881 462.861 336.11 478.863C336.188 479.425 336.273 479.987 336.351 480.549L488.438 479.704C488.885 479.146 489.324 478.581 489.75 478.009C491.17 476.118 492.501 474.172 493.723 472.16C499.595 462.465 502.283 451.113 499.589 443.282L499.541 443.16C498.959 441.445 498.043 439.861 496.844 438.499C490.702 431.622 478.284 432.768 467.015 438.32C477.123 427.313 485.171 413.425 485.783 401.028C486.382 388.937 480.026 380.299 473.132 372.958C472.906 372.715 472.68 372.479 472.454 372.243C472.344 372.122 472.228 372.007 472.118 371.886C466.74 366.292 460.469 360.777 451.393 361.444C441.438 362.177 430.402 370.471 422.664 380.136C414.925 389.794 409.783 400.766 404.571 411.474C399.352 422.176 393.705 433.15 385.33 442.297C396.674 428.025 405.819 411.786 409.197 395.993C412.576 380.199 409.603 365.031 399.493 357.592C396.424 355.404 392.873 353.978 389.136 353.435C388.7 353.363 388.257 353.305 387.807 353.253C378.449 352.194 367.275 355.413 357.768 363.11C347.298 371.584 340.04 384.146 336.428 396.072C332.817 407.997 332.432 419.478 332.549 430.577Z" fill="#F2F2F2"/>
<path d="M431.923 480.549L434.811 480.533C435.729 479.94 436.65 479.354 437.576 478.775C438.149 478.401 438.729 478.041 439.309 477.674C448.89 471.625 458.532 465.822 468.233 460.266C477.925 454.706 487.666 449.402 497.456 444.353C497.716 444.237 497.928 444.03 498.055 443.768C498.182 443.507 498.216 443.208 498.152 442.923C498.142 442.885 498.126 442.85 498.104 442.818C497.968 442.553 497.662 442.443 497.217 442.669C496.016 443.292 494.808 443.914 493.608 444.551C483.791 449.685 474.017 455.076 464.284 460.723C454.559 466.367 444.888 472.261 435.274 478.404C435.072 478.531 434.869 478.665 434.667 478.792C433.75 479.378 432.84 479.964 431.923 480.549Z" fill="white"/>
<path d="M393.884 480.549L395.68 480.538C396.086 479.968 396.484 479.398 396.889 478.827C406.41 465.396 415.928 451.965 425.445 438.535C441.03 416.547 456.609 394.558 472.185 372.57C472.277 372.452 472.346 372.317 472.387 372.172C472.52 371.685 472.165 371.4 471.709 371.45C471.517 371.478 471.333 371.546 471.169 371.651C471.005 371.756 470.866 371.894 470.76 372.058C462.022 384.389 453.287 396.715 444.554 409.037C429.05 430.915 413.549 452.791 398.05 474.665C397.064 476.053 396.078 477.449 395.092 478.837C394.687 479.408 394.282 479.978 393.884 480.549Z" fill="white"/>
<path d="M354.675 469.943C354.766 472.957 354.965 475.924 355.224 478.863C355.274 479.425 355.324 479.987 355.375 480.549L357.243 480.539C357.185 479.977 357.128 479.415 357.078 478.853C356.684 474.607 356.403 470.312 356.365 465.902C356.316 453.673 357.502 441.472 359.905 429.484C362.46 416.577 366.128 403.917 370.868 391.649C375.843 378.71 381.841 366.192 388.805 354.215C388.936 354.02 388.995 353.785 388.97 353.55C388.893 353.015 388.184 352.857 387.654 353.368C387.55 353.468 387.46 353.583 387.387 353.708C386.525 355.197 385.679 356.69 384.849 358.188C378.142 370.231 372.401 382.792 367.681 395.752C363.185 408.061 359.766 420.739 357.461 433.644C355.302 445.617 354.368 457.779 354.675 469.943V469.943Z" fill="white"/>
<path d="M171.305 291.77C170.992 291.517 170.762 291.18 170.646 290.801C170.53 290.422 170.532 290.018 170.653 289.64C170.773 289.262 171.006 288.927 171.323 288.678C171.64 288.428 172.026 288.275 172.432 288.237C176.944 287.815 181.498 288.267 185.828 289.567L229.933 302.759C230.504 302.93 231.034 303.208 231.494 303.577C231.954 303.946 232.335 304.4 232.614 304.912C232.893 305.423 233.065 305.983 233.121 306.559C233.176 307.136 233.114 307.717 232.938 308.27C232.761 308.823 232.474 309.336 232.093 309.782C231.712 310.227 231.243 310.596 230.715 310.866C230.187 311.136 229.609 311.303 229.014 311.357C228.419 311.411 227.819 311.35 227.248 311.18L183.142 297.988C178.81 296.696 174.786 294.583 171.305 291.77V291.77Z" fill="#3F3D56"/>
<path d="M351.135 347.446C349.972 346.951 348.931 346.204 348.084 345.256C347.237 344.309 346.605 343.184 346.233 341.962C345.86 340.74 345.756 339.449 345.928 338.182C346.1 336.915 346.544 335.701 347.228 334.626L339.894 295.693L358.587 294.214L359.715 332.296C361.417 333.582 362.596 335.457 363.027 337.566C363.458 339.676 363.112 341.872 362.054 343.739C360.997 345.607 359.301 347.016 357.288 347.699C355.276 348.382 353.086 348.292 351.135 347.446Z" fill="#BA7171"/>
<path d="M338.061 328.057L318.134 236.903C317.316 233.16 318.045 229.25 320.162 226.034C322.278 222.818 325.609 220.56 329.421 219.756C333.232 218.953 337.213 219.669 340.487 221.748C343.761 223.827 346.06 227.098 346.878 230.842L366.805 321.995C367.015 322.957 366.827 323.962 366.283 324.789C365.739 325.616 364.883 326.197 363.903 326.404L342.55 330.908C342.065 331.01 341.564 331.018 341.076 330.93C340.587 330.842 340.121 330.661 339.704 330.396C339.287 330.131 338.928 329.788 338.646 329.387C338.364 328.986 338.165 328.534 338.061 328.057V328.057Z" fill="#499F68"/>
<path d="M306.761 470.742H295.954L290.812 431.514L306.763 431.514L306.761 470.742Z" fill="#FFB8B8"/>
<path d="M289.166 467.064H307.99V479.323H277.314C277.314 477.714 277.621 476.119 278.216 474.632C278.812 473.145 279.685 471.793 280.785 470.655C281.886 469.517 283.193 468.614 284.631 467.998C286.069 467.382 287.61 467.064 289.166 467.064V467.064Z" fill="#2F2E41"/>
<path d="M339.891 469.516H329.916L325.169 430.287L339.894 430.288L339.891 469.516Z" fill="#FFB8B8"/>
<path d="M322.771 467.064H342.348V479.323H310.444C310.444 477.714 310.763 476.119 311.383 474.632C312.002 473.145 312.91 471.793 314.055 470.655C315.199 469.517 316.558 468.614 318.054 467.998C319.549 467.382 321.152 467.064 322.771 467.064V467.064Z" fill="#2F2E41"/>
<path d="M294.075 463.765C293.697 463.454 293.384 463.072 293.156 462.639C292.927 462.207 292.788 461.733 292.745 461.246L281.01 332.327C280.965 331.826 281.022 331.322 281.178 330.844C281.334 330.366 281.586 329.925 281.918 329.548C282.25 329.171 282.656 328.865 283.11 328.649C283.565 328.434 284.059 328.313 284.561 328.294L343.412 326.089C343.921 326.071 344.429 326.157 344.904 326.343C345.378 326.529 345.809 326.81 346.169 327.17C346.53 327.53 346.812 327.96 346.999 328.434C347.185 328.907 347.272 329.414 347.254 329.923L342.549 458.347C342.515 459.246 342.154 460.102 341.535 460.755C340.915 461.408 340.079 461.814 339.182 461.897L327.316 462.974C326.824 463.019 326.328 462.965 325.857 462.815C325.386 462.666 324.95 462.424 324.574 462.103C324.198 461.783 323.891 461.39 323.669 460.949C323.448 460.508 323.316 460.027 323.284 459.535L317.838 377.949C317.834 377.792 317.799 377.638 317.735 377.495C317.67 377.352 317.578 377.223 317.464 377.116C317.349 377.009 317.214 376.925 317.067 376.871C316.92 376.816 316.763 376.792 316.606 376.798H316.601C316.444 376.792 316.287 376.817 316.139 376.873C315.992 376.928 315.857 377.012 315.743 377.12C315.628 377.228 315.536 377.358 315.473 377.502C315.409 377.646 315.375 377.801 315.373 377.959L310.499 460.095C310.45 460.974 310.088 461.807 309.477 462.442C308.866 463.078 308.047 463.473 307.169 463.557L296.803 464.593C296.316 464.643 295.824 464.596 295.356 464.453C294.887 464.311 294.452 464.077 294.075 463.765H294.075Z" fill="#2F2E41"/>
<path d="M317.193 199.82C328.375 199.82 337.44 190.764 337.44 179.592C337.44 168.421 328.375 159.365 317.193 159.365C306.011 159.365 296.947 168.421 296.947 179.592C296.947 190.764 306.011 199.82 317.193 199.82Z" fill="#BA7171"/>
<path d="M277.93 332.193C277.569 331.787 277.304 331.308 277.153 330.789C277.003 330.27 276.972 329.724 277.061 329.192C280.802 306.71 278.694 273.664 276.266 249.901C275.632 243.597 276.69 237.24 279.332 231.469C281.974 225.698 286.107 220.717 291.316 217.027L301.899 208.059C302.603 207.47 303.5 207.156 304.422 207.177L330.714 207.919C331.662 207.945 332.564 208.329 333.234 208.994L337.296 217.888L337.338 217.919C342.18 221.437 346.064 226.086 348.643 231.451C351.223 236.816 352.417 242.729 352.12 248.662L348.25 327.733C348.2 328.652 347.805 329.52 347.141 330.166C346.478 330.812 345.594 331.189 344.663 331.224L280.845 333.441C280.804 333.442 280.763 333.442 280.722 333.442C280.193 333.443 279.67 333.332 279.189 333.116C278.707 332.901 278.278 332.586 277.93 332.193V332.193Z" fill="#499F68"/>
<path d="M201.24 299.011C201.207 297.725 201.462 296.448 201.986 295.269C202.509 294.09 203.289 293.039 204.27 292.189C205.25 291.339 206.409 290.711 207.662 290.35C208.916 289.988 210.235 289.902 211.527 290.097L244.691 267.244L254 284.043L218.996 300.766C218.52 302.881 217.272 304.75 215.49 306.019C213.708 307.289 211.515 307.871 209.326 307.654C207.137 307.438 205.105 306.439 203.615 304.846C202.124 303.253 201.279 301.177 201.239 299.011L201.24 299.011Z" fill="#BA7171"/>
<path d="M229.307 302.752C228.826 302.68 228.364 302.514 227.948 302.265C227.532 302.015 227.17 301.686 226.883 301.298L214.223 284.227C213.643 283.443 213.401 282.464 213.55 281.503C213.699 280.543 214.227 279.68 215.017 279.104L289.977 224.649C293.056 222.412 296.907 221.477 300.682 222.051C302.551 222.334 304.345 222.98 305.963 223.95C307.58 224.92 308.988 226.196 310.107 227.705C311.226 229.214 312.034 230.926 312.484 232.744C312.935 234.562 313.019 236.45 312.732 238.3C312.445 240.15 311.793 241.926 310.813 243.526C309.833 245.127 308.543 246.521 307.019 247.628L232.059 302.083C231.427 302.545 230.662 302.794 229.876 302.794C229.685 302.794 229.495 302.78 229.307 302.752V302.752Z" fill="#499F68"/>
<path d="M317.894 197.813C320.541 194.516 320.251 189.494 318.127 185.828C316.002 182.161 312.395 179.636 308.683 177.664C304.972 175.692 301.029 174.141 297.536 171.792C294.043 169.444 294.196 159.502 293.266 155.354L295.484 156.104C294.631 154.996 294.358 151.723 293.505 150.616C296.012 150.867 297.939 153.284 300.445 153.536L298.999 149.592C307.594 149.054 312.938 155.12 321.533 154.582C325.791 154.316 330.416 154.147 333.917 156.624C336.959 158.776 338.499 162.502 339.509 166.125C341.679 173.904 342.016 182.618 338.269 189.752C334.521 196.885 325.884 201.692 318.338 199.116L317.894 197.813Z" fill="#2F2E41"/>
<path d="M206.968 480.549H520.674C520.893 480.549 521.102 480.42 521.257 480.19C521.411 479.96 521.498 479.649 521.498 479.324C521.498 478.998 521.411 478.687 521.257 478.457C521.102 478.227 520.893 478.098 520.674 478.098H206.968C206.75 478.098 206.541 478.227 206.386 478.457C206.232 478.687 206.145 478.998 206.145 479.324C206.145 479.649 206.232 479.96 206.386 480.19C206.541 480.42 206.75 480.549 206.968 480.549Z" fill="#3F3D56"/>
</g>
<defs>
<clipPath id="clip0">
<rect width="521" height="480" fill="white"/>
</clipPath>
</defs>
</svg>
