<svg width="24" height="24" viewBox="0 0 24 24" fill="none" xmlns="http://www.w3.org/2000/svg">
<path fill-rule="evenodd" clip-rule="evenodd" d="M1.47308 3.64993C1.62608 3.55488 1.80663 3.5 2 3.5H22C22.1905 3.5 22.3686 3.55327 22.5201 3.64573C22.5015 3.63443 22.4826 3.62378 22.4635 3.61377C22.5814 3.67558 22.6855 3.76024 22.7698 3.86188C22.7556 3.8447 22.7409 3.82811 22.7258 3.81212C22.8441 3.93686 22.9305 4.09207 22.9722 4.26474C22.958 4.20616 22.9384 4.14843 22.9133 4.0923C22.969 4.21684 23 4.35485 23 4.50009V4.51476L23 4.51124V19.5C23 20.0523 22.5523 20.5 22 20.5H2C1.44772 20.5 1 20.0523 1 19.5V4.5C1 4.14108 1.18909 3.82633 1.47308 3.64993ZM1.47308 3.64993C1.48397 3.64318 1.49497 3.63665 1.50608 3.63035C1.41847 3.68021 1.33912 3.74293 1.2706 3.81594C1.33162 3.75073 1.39983 3.69529 1.47308 3.64993ZM2.99995 5.50009H4.99993L12 10.7501L19.0001 5.50009H21V6.50019L12.6 12.8001C12.2445 13.0668 11.7556 13.0668 11.4 12.8001L2.99995 6.5001V5.50009Z" fill="#FFFCFF"/>
</svg>
