<svg width="574" height="488" viewBox="0 0 574 488" fill="none" xmlns="http://www.w3.org/2000/svg">
<path d="M561.687 101.955V471.436C561.687 475.829 559.941 480.042 556.832 483.148C553.723 486.255 549.507 488 545.111 488H12.3356C10.8012 488 9.28174 487.698 7.86408 487.111C6.44642 486.524 5.1583 485.664 4.07327 484.58C2.98824 483.496 2.12755 482.209 1.54033 480.792C0.95312 479.375 0.650879 477.857 0.650879 476.324V147.588C0.650879 127.651 8.57661 108.531 22.6845 94.434C36.7924 80.3368 55.9268 72.417 75.8783 72.417H532.127C536.009 72.417 539.853 73.181 543.439 74.6654C547.025 76.1498 550.284 78.3256 553.029 81.0684C555.774 83.8113 557.951 87.0675 559.437 90.6512C560.922 94.2349 561.687 98.0758 561.687 101.955V101.955Z" fill="#F2F2F2"/>
<path fill-rule="evenodd" clip-rule="evenodd" d="M331.181 295.349C328.637 291.55 325.952 287.833 323.129 284.205C296.745 250.293 259.801 226.137 218.139 215.555C176.477 204.972 132.474 208.568 93.0855 225.773C53.6974 242.978 21.1719 272.81 0.650879 310.555V469.056C12.6014 402.337 186.286 344.261 284.304 311.486C303.378 305.108 319.587 299.688 331.181 295.349Z" fill="#4A545E"/>
<path d="M561.687 371.975V471.436C561.687 475.829 559.94 480.042 556.832 483.149C553.723 486.255 549.507 488 545.111 488H11.6009C8.52475 488 5.57454 486.779 3.39905 484.606C1.22356 482.433 0.000914661 479.485 0 476.411V476.294C0 393.45 257.862 322.788 331.181 295.349C372.583 279.904 418.029 279.083 459.963 293.023C501.898 306.963 537.795 334.824 561.687 371.975H561.687Z" fill="#424B54" fill-opacity="0.78"/>
<path d="M479.389 188.921C505.989 188.921 527.552 167.374 527.552 140.794C527.552 114.214 505.989 92.6667 479.389 92.6667C452.789 92.6667 431.226 114.214 431.226 140.794C431.226 167.374 452.789 188.921 479.389 188.921Z" fill="#FFC312"/>
<path d="M189.711 266.389C189.711 329.35 152.224 351.333 105.982 351.333C59.739 351.333 22.252 329.35 22.252 266.389C22.252 203.429 105.982 123.333 105.982 123.333C105.982 123.333 189.711 203.429 189.711 266.389Z" fill="#499F68"/>
<path d="M102.856 341.634L103.721 288.958L139.673 223.791L103.855 280.695L104.244 257.01L129.023 209.862L104.347 250.742L105.045 208.143L131.579 170.607L105.155 201.444L105.592 123.333L102.849 226.739L103.074 222.473L76.0973 181.561L102.642 230.661L100.128 278.237L100.053 276.974L68.9536 233.921L99.9592 281.436L99.645 287.385L99.5887 287.475L99.6144 287.963L93.237 408.667H101.757L102.78 346.321L133.709 298.923L102.856 341.634Z" fill="#FFFCFF" fill-opacity="0.68"/>
<path d="M404.844 171.582C404.844 247.096 359.918 273.463 304.499 273.463C249.079 273.463 204.153 247.096 204.153 171.582C204.153 96.0668 304.499 0 304.499 0C304.499 0 404.844 96.0668 404.844 171.582Z" fill="#499F68"/>
<path d="M300.843 261.912L301.871 198.712L344.641 120.527L302.032 188.799L302.494 160.382L331.971 103.814L302.617 152.862L303.448 101.753L335.012 56.7182L303.578 93.716L304.098 0L300.834 124.063L301.103 118.945L269.011 69.8603L300.588 128.77L297.598 185.849L297.509 184.334L260.513 132.68L297.396 189.687L297.023 196.825L296.956 196.932L296.987 197.519L289.4 342.335H299.536L300.752 267.535L337.546 210.668L300.843 261.912Z" fill="#FFFCFF" fill-opacity="0.68"/>
<path d="M574 283.528C574 324.397 549.656 338.667 519.626 338.667C489.596 338.667 465.251 324.397 465.251 283.528C465.251 242.659 519.626 190.667 519.626 190.667C519.626 190.667 574 242.659 574 283.528Z" fill="#499F68"/>
<path d="M517.69 332.46L518.244 298.246L541.309 255.917L518.332 292.879L518.58 277.494L534.477 246.87L518.646 273.423L519.095 245.754L536.117 221.373L519.165 241.403L519.446 190.667L517.685 257.832L517.83 255.061L500.524 228.488L517.553 260.38L515.94 291.282L515.892 290.462L495.941 262.497L515.832 293.36L515.63 297.224L515.594 297.282L515.611 297.599L511.519 376H516.986L517.641 335.505L537.483 304.718L517.69 332.46Z" fill="#FFFCFF" fill-opacity="0.68"/>
<path d="M493.873 356.795C490.883 361.561 487.004 361.449 483.507 359.258C480.009 357.067 478.218 353.627 481.208 348.861C484.198 344.096 494.334 342 494.334 342C494.334 342 496.863 352.03 493.873 356.795Z" fill="#499F68"/>
<path d="M251.691 370.795C248.701 375.561 244.822 375.449 241.325 373.258C237.827 371.067 236.036 367.627 239.026 362.861C242.016 358.096 252.152 356 252.152 356C252.152 356 254.681 366.03 251.691 370.795Z" fill="#499F68"/>
<path d="M219.062 429.317C219.615 434.915 216.478 437.198 212.37 437.603C208.262 438.009 204.739 436.383 204.186 430.786C203.632 425.188 210.366 417.333 210.366 417.333C210.366 417.333 218.508 423.72 219.062 429.317Z" fill="#499F68"/>
<path d="M92.2381 432.128C89.2482 436.894 85.3691 436.782 81.8717 434.591C78.3742 432.4 76.583 428.96 79.5728 424.195C82.5626 419.429 92.6987 417.333 92.6987 417.333C92.6987 417.333 95.2279 427.363 92.2381 432.128Z" fill="#499F68"/>
<path d="M138.273 391.462C135.283 396.227 131.404 396.115 127.906 393.924C124.409 391.734 122.618 388.293 125.607 383.528C128.597 378.762 138.733 376.667 138.733 376.667C138.733 376.667 141.263 386.696 138.273 391.462Z" fill="#499F68"/>
<path d="M458.687 411.28C458.687 411.28 426.645 407.413 415.431 401.291C404.216 395.17 320.908 392.27 320.908 411.28C320.908 430.289 416.712 438.667 416.712 438.667L467.018 435.767L458.687 411.28Z" fill="#CF7E7E"/>
<path opacity="0.1" d="M458.687 411.28C458.687 411.28 426.645 407.413 415.431 401.291C404.216 395.17 320.908 392.27 320.908 411.28C320.908 430.289 416.712 438.667 416.712 438.667L467.018 435.767L458.687 411.28Z" fill="black"/>
<path d="M449.004 407.173L455.769 427.344L561.756 428.667V398.907C561.756 398.907 521.165 389.317 488.951 409.819C488.951 409.819 450.937 405.189 449.004 407.173Z" fill="#575A89"/>
<path opacity="0.1" d="M449.004 407.173L455.769 427.344L561.756 428.667V398.907C561.756 398.907 521.165 389.317 488.951 409.819C488.951 409.819 450.937 405.189 449.004 407.173Z" fill="black"/>
<path d="M452.709 417.331C452.709 417.331 438.375 416.432 439.018 421.525C439.66 426.618 440.303 466.09 444.159 467.045C448.014 468 478.538 468 491.069 468H561.756V406.974C561.756 406.974 511.632 404.018 486.571 416.432C486.571 416.432 456.44 416.001 452.709 417.331Z" fill="#575A89"/>
<path opacity="0.9" d="M384.304 349.98V317.651H388.702V308H357.187V317.651H361.585V349.98C355.511 352.289 350.282 356.392 346.591 361.744C342.901 367.097 340.924 373.446 340.923 379.949C340.923 397.651 355.261 412 372.948 412C390.634 412 404.971 397.651 404.971 379.949C404.969 373.445 402.992 367.095 399.301 361.743C395.609 356.39 390.379 352.288 384.304 349.98V349.98Z" fill="#FFFCFF" fill-opacity="0.68"/>
<path d="M354.934 379.371C354.934 379.371 374.117 379.031 383.709 374.182C393.3 369.333 398.781 373.662 398.266 376.604C397.751 379.546 395.013 385.252 384.052 385.953C373.091 386.653 354.934 379.371 354.934 379.371Z" fill="#499F68"/>
<path opacity="0.1" d="M354.934 379.371C354.934 379.371 374.117 379.031 383.709 374.182C393.3 369.333 398.781 373.662 398.266 376.604C397.751 379.546 395.013 385.252 384.052 385.953C373.091 386.653 354.934 379.371 354.934 379.371Z" fill="black"/>
<path d="M346.296 375.54C346.296 375.54 344.229 404.798 371.347 405.326C398.466 405.855 398.299 375.886 398.299 375.886C398.299 375.886 388.284 386.989 364.61 377.824C364.61 377.831 352.343 374.482 346.296 375.54Z" fill="#499F68"/>
<path opacity="0.1" d="M398.206 376.771C397.665 383.333 394.152 403.872 371.353 403.438C349.004 403.019 346.473 383.614 346.275 376.788C346.151 380.451 346.261 404.85 371.348 405.327C398.473 405.832 398.299 376.667 398.299 376.667C398.299 376.667 398.265 376.709 398.206 376.771Z" fill="black"/>
<path opacity="0.3" d="M371.946 367.333C373.973 367.333 375.616 365.692 375.616 363.667C375.616 361.642 373.973 360 371.946 360C369.92 360 368.277 361.642 368.277 363.667C368.277 365.692 369.92 367.333 371.946 367.333Z" fill="#499F68"/>
<path opacity="0.3" d="M374.281 351.333C375.387 351.333 376.283 350.438 376.283 349.333C376.283 348.229 375.387 347.333 374.281 347.333C373.176 347.333 372.28 348.229 372.28 349.333C372.28 350.438 373.176 351.333 374.281 351.333Z" fill="#499F68"/>
<path opacity="0.3" d="M369.277 339.333C370.567 339.333 371.613 338.438 371.613 337.333C371.613 336.229 370.567 335.333 369.277 335.333C367.988 335.333 366.942 336.229 366.942 337.333C366.942 338.438 367.988 339.333 369.277 339.333Z" fill="#499F68"/>
<path opacity="0.2" d="M350.342 365.943C350.161 367.435 350.197 369.303 351.485 370C350.405 369.416 354.833 362.794 354.205 361.442C352.861 358.556 350.507 364.556 350.342 365.943Z" fill="white"/>
<path opacity="0.3" d="M367.276 302C369.303 302 370.946 300.358 370.946 298.333C370.946 296.308 369.303 294.667 367.276 294.667C365.25 294.667 363.607 296.308 363.607 298.333C363.607 300.358 365.25 302 367.276 302Z" fill="#499F68"/>
<path opacity="0.3" d="M378.284 294.667C379.758 294.667 380.953 293.473 380.953 292C380.953 290.527 379.758 289.333 378.284 289.333C376.811 289.333 375.616 290.527 375.616 292C375.616 293.473 376.811 294.667 378.284 294.667Z" fill="#499F68"/>
<path opacity="0.3" d="M370.278 286C371.015 286 371.613 285.552 371.613 285C371.613 284.448 371.015 284 370.278 284C369.541 284 368.944 284.448 368.944 285C368.944 285.552 369.541 286 370.278 286Z" fill="#499F68"/>
<path d="M444.788 418.833C444.788 418.833 408.609 400.094 385.237 407.202C361.864 414.31 329.207 402.032 325.365 406.232C321.522 410.433 316.08 455.667 362.184 458.252C408.289 460.837 447.67 450.497 447.67 450.497L444.788 418.833Z" fill="#CF7E7E"/>
</svg>
