<svg width="24" height="24" viewBox="0 0 24 24" fill="none" xmlns="http://www.w3.org/2000/svg">
<path d="M11.6533 24H2.05556C0.915141 24 0 23.0719 0 21.9387V2.06137C0 0.928089 0.915135 0 2.05556 0H21.9445C23.0849 0 24 0.928087 24 2.06137V21.9387C24 23.0719 23.0848 24 21.9445 24H15.6743V16.2766H18.7952L19.3308 12.6112H15.6743V10.166C15.6743 9.49105 16.2215 8.94385 16.8965 8.94385H19.3308V4.66602H14.8296L14.7989 4.66617C13.0381 4.68308 11.6244 6.1242 11.6413 7.88505L11.6533 9.13205L11.6104 12.6112H8.33337V16.2766H11.6533V24Z" fill="#FFFCFF"/>
</svg>
