<svg width="24" height="24" viewBox="0 0 24 24" fill="none" xmlns="http://www.w3.org/2000/svg">
<path d="M10.5195 10.5339C10.4283 10.3206 10.363 10.1342 10.3183 9.99078L11.307 8.01333C11.5962 7.43503 11.5813 6.75138 11.2676 6.18623L10.0693 4.02774C9.72386 3.40553 9.06816 3.01953 8.35643 3.01953H5.87184C3.99399 3.01953 2.53183 4.79907 3.16878 6.68683C4.00665 9.16996 5.64662 13.1809 8.24033 15.7746C10.8341 18.3684 14.8449 20.0083 17.3281 20.8461C19.2159 21.4832 20.9954 20.0209 20.9954 18.1431V15.6581C20.9954 14.9468 20.6099 14.2914 19.9882 13.9458L17.8237 12.7423C17.2583 12.428 16.5741 12.413 15.9954 12.7024L14.0174 13.6914C13.8747 13.6471 13.6893 13.5825 13.4772 13.4921C12.9534 13.2689 12.2914 12.8989 11.7037 12.3112C11.1158 11.7234 10.7443 11.0597 10.5195 10.5339Z" fill="white"/>
</svg>
