<svg width="602" height="431" viewBox="0 0 602 431" fill="none" xmlns="http://www.w3.org/2000/svg">
<path d="M501.254 0H0V257.426H501.254V0Z" fill="#424B54"/>
<path d="M465.209 190.755C465.209 190.755 441.566 209.357 453.387 213.584C465.209 217.812 472.808 198.365 472.808 198.365L465.209 190.755Z" fill="#BD7373"/>
<path d="M466.053 183.991L460.987 192.446C460.987 192.446 469.431 192.446 471.119 205.129L477.875 196.674L466.053 183.991Z" fill="#CFCCE0"/>
<path d="M578.357 376.773L579.201 402.138L569.069 408.057L564.847 405.521L565.692 376.773H578.357Z" fill="#BD7373"/>
<path d="M518.405 370.008L520.094 397.065L496.451 407.211L498.14 392.837C498.14 392.837 504.895 381.845 503.206 370.008H518.405Z" fill="#BD7373"/>
<path d="M554.714 166.235C554.714 166.235 568.224 201.747 570.757 223.731C573.291 245.715 577.513 304.056 577.513 304.056L585.957 379.309L562.314 382.691L552.181 306.593L529.382 231.341L524.316 306.593L520.094 375.081L498.14 375.927L496.451 304.902L487.163 214.43L492.229 171.308L554.714 166.235Z" fill="#2F2E41"/>
<path d="M567.38 403.829C567.38 403.829 568.765 389.628 579.05 397.574L580.89 396.22L589.334 414.821C589.334 414.821 599.467 429.195 581.735 430.886C564.002 432.577 565.691 414.821 565.691 414.821L564.002 407.211L564.847 402.228L567.38 403.829Z" fill="#2F2E41"/>
<path d="M518.405 386.919C520.484 388.109 522.206 389.834 523.394 391.915C524.582 393.997 525.192 396.359 525.16 398.756C525.16 407.211 524.316 408.057 524.316 408.057L511.65 411.439C511.65 411.439 503.206 410.594 498.14 415.667C493.074 420.74 467.742 424.122 467.742 417.358C467.742 410.594 488.852 399.602 488.852 399.602C488.852 399.602 495.121 389 499.586 390.073C504.051 391.146 505.739 392.837 505.739 393.683C505.739 394.529 503.206 400.447 503.206 400.447C503.206 400.447 517.561 397.065 518.405 386.919Z" fill="#2F2E41"/>
<path d="M516.717 62.2342C528.375 62.2342 537.826 52.7702 537.826 41.0958C537.826 29.4215 528.375 19.9575 516.717 19.9575C505.058 19.9575 495.607 29.4215 495.607 41.0958C495.607 52.7702 505.058 62.2342 516.717 62.2342Z" fill="#BD7373"/>
<path d="M532.338 46.5916L541.626 67.7299L516.294 104.088C516.294 104.088 514.606 64.3477 509.539 57.5835C504.473 50.8192 532.338 46.5916 532.338 46.5916Z" fill="#BD7373"/>
<path d="M520.517 90.5593L524.739 79.5676L528.116 80.4133L532.338 77.0305L538.248 58.4292L546.692 64.3483L557.67 175.113L489.274 176.804L498.562 99.8604L507.006 77.8762L513.101 69.8082L517.138 82.1039L520.517 90.5593Z" fill="#CFCCE0"/>
<path d="M539.937 137.909L542.521 61.4238C542.521 61.4238 547.537 61.8111 549.226 64.3477C550.914 66.8843 578.779 71.9575 578.779 71.9575L573.713 150.592C573.713 150.592 594.823 213.161 587.223 216.544C579.624 219.926 566.113 219.08 566.113 219.08L539.937 137.909Z" fill="#575A89"/>
<path d="M498.984 128.185L507.942 76.6375L488.007 90.1365L493.074 127.34L488.852 152.706C488.852 152.706 472.808 222.885 477.875 225.422C482.941 227.958 488.852 225.422 488.852 225.422L498.984 154.397V128.185Z" fill="#575A89"/>
<path d="M493.918 88.4456L488.007 90.1366L485.474 123.958L481.252 153.552L460.987 189.91C460.987 189.91 471.119 183.145 475.341 202.593L497.659 163.683L493.918 88.4456Z" fill="#575A89"/>
<path d="M559.78 183.991C559.78 183.991 536.137 202.592 547.959 206.82C559.78 211.048 567.38 191.601 567.38 191.601L559.78 183.991Z" fill="#BD7373"/>
<path d="M574.135 193.291L566.535 202.592L556.403 184.836L560.625 177.226L574.135 193.291Z" fill="#CFCCE0"/>
<path d="M572.446 74.917L579.202 71.5349C579.202 71.5349 584.268 78.2992 585.112 84.2179C585.957 90.1366 590.179 97.7464 590.179 101.974C590.179 106.202 602 145.942 602 145.942L574.98 200.901C574.98 200.901 569.069 180.609 556.403 178.918L577.513 149.324L565.691 128.186L572.446 74.917Z" fill="#575A89"/>
<path d="M534.389 20.9554L538.369 19.3596C538.369 19.3596 530.046 10.1837 518.466 10.9816L521.723 7.39101C521.723 7.39101 513.761 4.19941 506.524 12.5774C502.719 16.9815 498.317 22.1583 495.573 27.9899H491.309L493.089 31.9129L486.861 35.8359L493.253 35.1313C492.872 37.2796 492.814 39.4728 493.08 41.6383C493.354 43.8046 494.458 45.7794 496.159 47.1461V47.1461C496.159 47.1461 501.095 36.9135 501.095 35.3177V39.3072C501.095 39.3072 505.076 35.7167 505.076 33.323L507.247 36.1156L508.333 31.7271L521.723 36.1156L519.552 32.5251L527.875 33.7219L524.618 29.3334C524.618 29.3334 534.027 34.5198 534.389 38.9083C534.751 43.2968 537.505 47.4551 537.505 47.4551C537.505 47.4551 544.883 26.9397 534.389 20.9554Z" fill="#2F2E41"/>
<path d="M414.984 62.5329C411.492 62.5329 408.079 61.4961 405.176 59.5536C402.273 57.6111 400.01 54.8502 398.674 51.62C397.337 48.3898 396.988 44.8353 397.669 41.4061C398.35 37.977 400.032 34.8271 402.5 32.3548C404.969 29.8824 408.115 28.1988 411.54 27.5167C414.964 26.8346 418.514 27.1847 421.74 28.5227C424.966 29.8607 427.723 32.1265 429.663 35.0336C431.602 37.9407 432.638 41.3586 432.638 44.855C432.633 49.5419 430.771 54.0353 427.461 57.3495C424.152 60.6636 419.664 62.5278 414.984 62.5329V62.5329ZM414.984 29.5341C411.958 29.5341 409 30.4326 406.483 32.1161C403.967 33.7996 402.006 36.1924 400.848 38.9919C399.69 41.7914 399.387 44.8719 399.978 47.8439C400.568 50.8158 402.025 53.5458 404.165 55.6884C406.305 57.8311 409.031 59.2903 411.999 59.8814C414.967 60.4726 418.043 60.1692 420.839 59.0096C423.635 57.85 426.024 55.8863 427.705 53.3668C429.387 50.8473 430.284 47.8851 430.284 44.855C430.279 40.7931 428.666 36.8989 425.797 34.0267C422.929 31.1545 419.04 29.5388 414.984 29.5341V29.5341Z" fill="white"/>
<path d="M412.231 48.5529C412.951 48.9793 413.768 49.2124 414.604 49.2296C416.468 49.2296 417.045 48.0407 417.028 47.1499C417.012 45.6469 415.659 45.0035 414.259 45.0035H413.45V43.9136H414.259C415.315 43.9136 416.65 43.3692 416.65 42.0975C416.65 41.2388 416.105 40.4793 414.77 40.4793C414.001 40.5009 413.256 40.7483 412.627 41.1905L412.248 40.134C413.081 39.5901 414.056 39.3028 415.05 39.3077C417.16 39.3077 418.117 40.5622 418.117 41.8673C418.106 42.4464 417.906 43.0061 417.549 43.4617C417.192 43.9173 416.697 44.244 416.137 44.3924V44.4258C416.8 44.5218 417.406 44.8529 417.845 45.3589C418.283 45.8649 418.526 46.512 418.528 47.1822C418.528 48.8993 417.193 50.4024 414.621 50.4024C413.644 50.4151 412.682 50.1638 411.835 49.675L412.231 48.5529Z" fill="white"/>
<path d="M466.974 155.073H363.048C362.894 155.073 362.741 155.043 362.598 154.983C362.455 154.924 362.325 154.837 362.216 154.728C362.106 154.618 362.02 154.488 361.961 154.345C361.902 154.202 361.871 154.049 361.871 153.894V87.3074C361.871 87.1526 361.902 86.9994 361.961 86.8563C362.02 86.7133 362.106 86.5833 362.216 86.4739C362.325 86.3644 362.455 86.2776 362.598 86.2184C362.741 86.1592 362.894 86.1288 363.048 86.1289H466.974C467.128 86.1288 467.282 86.1592 467.424 86.2184C467.567 86.2776 467.697 86.3644 467.806 86.4739C467.916 86.5833 468.002 86.7133 468.061 86.8563C468.12 86.9994 468.151 87.1526 468.151 87.3074V153.894C468.151 154.049 468.12 154.202 468.061 154.345C468.002 154.488 467.916 154.618 467.806 154.728C467.697 154.837 467.567 154.924 467.424 154.983C467.282 155.043 467.128 155.073 466.974 155.073V155.073ZM364.225 152.716H465.797V88.486H364.225V152.716Z" fill="white"/>
<path d="M448.376 100.86H384.821C384.509 100.86 384.21 100.736 383.989 100.515C383.769 100.294 383.645 99.9945 383.645 99.6819C383.645 99.3694 383.769 99.0696 383.989 98.8486C384.21 98.6276 384.509 98.5034 384.821 98.5034H448.376C448.688 98.5034 448.988 98.6276 449.208 98.8486C449.429 99.0696 449.553 99.3694 449.553 99.6819C449.553 99.9945 449.429 100.294 449.208 100.515C448.988 100.736 448.688 100.86 448.376 100.86V100.86Z" fill="white"/>
<path d="M448.376 111.467H384.822C384.667 111.468 384.513 111.437 384.37 111.378C384.227 111.319 384.097 111.233 383.987 111.123C383.878 111.014 383.791 110.884 383.732 110.74C383.672 110.597 383.642 110.444 383.642 110.289C383.642 110.134 383.672 109.98 383.732 109.837C383.791 109.694 383.878 109.564 383.987 109.454C384.097 109.345 384.227 109.258 384.37 109.199C384.513 109.14 384.667 109.11 384.822 109.11H448.376C448.688 109.11 448.988 109.234 449.208 109.455C449.429 109.676 449.553 109.976 449.553 110.289C449.553 110.601 449.429 110.901 449.208 111.122C448.988 111.343 448.688 111.467 448.376 111.467V111.467Z" fill="white"/>
<path d="M448.376 122.074H384.821C384.509 122.074 384.21 121.95 383.989 121.729C383.769 121.508 383.645 121.208 383.645 120.896C383.645 120.583 383.769 120.283 383.989 120.062C384.21 119.841 384.509 119.717 384.821 119.717H448.376C448.688 119.717 448.988 119.841 449.208 120.062C449.429 120.283 449.553 120.583 449.553 120.896C449.553 121.208 449.429 121.508 449.208 121.729C448.988 121.95 448.688 122.074 448.376 122.074V122.074Z" fill="white"/>
<path d="M448.376 132.681H384.822C384.667 132.681 384.513 132.651 384.37 132.592C384.227 132.533 384.097 132.446 383.987 132.337C383.878 132.227 383.791 132.097 383.732 131.954C383.672 131.811 383.642 131.657 383.642 131.502C383.642 131.347 383.672 131.194 383.732 131.051C383.791 130.907 383.878 130.777 383.987 130.668C384.097 130.558 384.227 130.472 384.37 130.413C384.513 130.354 384.667 130.323 384.822 130.324H448.376C448.688 130.324 448.988 130.448 449.208 130.669C449.429 130.89 449.553 131.19 449.553 131.502C449.553 131.815 449.429 132.115 449.208 132.336C448.988 132.557 448.688 132.681 448.376 132.681V132.681Z" fill="white"/>
<path d="M448.376 143.287H384.821C384.509 143.287 384.21 143.163 383.989 142.942C383.769 142.721 383.645 142.422 383.645 142.109C383.645 141.796 383.769 141.497 383.989 141.276C384.21 141.055 384.509 140.93 384.821 140.93H448.376C448.531 140.93 448.684 140.96 448.827 141.019C448.971 141.078 449.101 141.165 449.21 141.275C449.32 141.384 449.407 141.514 449.466 141.657C449.526 141.8 449.556 141.954 449.556 142.109C449.556 142.264 449.526 142.417 449.466 142.561C449.407 142.704 449.32 142.834 449.21 142.943C449.101 143.053 448.971 143.14 448.827 143.199C448.684 143.258 448.531 143.288 448.376 143.287Z" fill="white"/>
<path d="M430.371 229.21H389.271V188.054H417.16V189.034H390.25V228.23H429.392V208.632H430.371V229.21Z" fill="#FFFCFF" fill-opacity="0.67"/>
<path d="M409.287 218.719C408.336 215.88 396.408 206.228 403.717 204.606L409.711 212.686L437.269 184.827L440.041 187.629L409.287 218.719Z" fill="#499F68"/>
<path d="M52.8532 62.5329C49.3615 62.5329 45.9483 61.4961 43.0451 59.5536C40.1419 57.6111 37.8791 54.8502 36.5429 51.62C35.2067 48.3898 34.8571 44.8353 35.5383 41.4061C36.2195 37.977 37.9009 34.8271 40.3699 32.3548C42.8388 29.8824 45.9845 28.1988 49.409 27.5167C52.8336 26.8346 56.3832 27.1847 59.6091 28.5227C62.8349 29.8607 65.5921 32.1265 67.532 35.0336C69.4718 37.9407 70.5072 41.3586 70.5072 44.855C70.502 49.5418 68.6404 54.0353 65.3307 57.3494C62.0211 60.6635 57.5337 62.5277 52.8532 62.5329V62.5329ZM52.8532 29.5341C49.8271 29.5341 46.8689 30.4326 44.3528 32.1161C41.8367 33.7996 39.8757 36.1924 38.7176 38.9919C37.5596 41.7914 37.2566 44.872 37.847 47.8439C38.4373 50.8159 39.8945 53.5458 42.0343 55.6885C44.1741 57.8311 46.9003 59.2903 49.8682 59.8814C52.8362 60.4726 55.9125 60.1692 58.7083 59.0096C61.504 57.85 63.8936 55.8863 65.5748 53.3668C67.256 50.8473 68.1534 47.8851 68.1534 44.855C68.1488 40.793 66.5353 36.8988 63.667 34.0265C60.7986 31.1543 56.9096 29.5387 52.8532 29.5341Z" fill="white"/>
<path d="M52.6863 40.843H52.6536L50.7905 41.85L50.5106 40.744L52.8513 39.4895H54.088V50.2206H52.6863V40.843Z" fill="white"/>
<path d="M28.308 89.4018C28.6213 89.391 28.9182 89.2587 29.136 89.0329C29.3539 88.8071 29.4756 88.5054 29.4756 88.1914C29.4756 87.8774 29.3539 87.5758 29.136 87.3499C28.9182 87.1241 28.6213 86.9918 28.308 86.981C27.9946 86.9918 27.6977 87.1241 27.4799 87.3499C27.2621 87.5758 27.1403 87.8774 27.1403 88.1914C27.1403 88.5054 27.2621 88.8071 27.4799 89.0329C27.6977 89.2587 27.9946 89.391 28.308 89.4018V89.4018Z" fill="white"/>
<path d="M28.308 102.366C28.6213 102.355 28.9182 102.223 29.136 101.997C29.3539 101.771 29.4756 101.469 29.4756 101.156C29.4756 100.842 29.3539 100.54 29.136 100.314C28.9182 100.088 28.6213 99.9559 28.308 99.9451C27.9946 99.9559 27.6977 100.088 27.4799 100.314C27.2621 100.54 27.1403 100.842 27.1403 101.156C27.1403 101.469 27.2621 101.771 27.4799 101.997C27.6977 102.223 27.9946 102.355 28.308 102.366V102.366Z" fill="white"/>
<path d="M28.308 115.33C28.6213 115.319 28.9182 115.186 29.136 114.961C29.3539 114.735 29.4756 114.433 29.4756 114.119C29.4756 113.805 29.3539 113.503 29.136 113.278C28.9182 113.052 28.6213 112.92 28.308 112.909C27.9946 112.92 27.6977 113.052 27.4799 113.278C27.2621 113.503 27.1403 113.805 27.1403 114.119C27.1403 114.433 27.2621 114.735 27.4799 114.961C27.6977 115.186 27.9946 115.319 28.308 115.33V115.33Z" fill="white"/>
<path d="M28.308 128.293C28.6213 128.283 28.9182 128.15 29.136 127.924C29.3539 127.699 29.4756 127.397 29.4756 127.083C29.4756 126.769 29.3539 126.467 29.136 126.242C28.9182 126.016 28.6213 125.883 28.308 125.873C27.9946 125.883 27.6977 126.016 27.4799 126.242C27.2621 126.467 27.1403 126.769 27.1403 127.083C27.1403 127.397 27.2621 127.699 27.4799 127.924C27.6977 128.15 27.9946 128.283 28.308 128.293V128.293Z" fill="white"/>
<path d="M28.308 141.257C28.6213 141.246 28.9182 141.114 29.136 140.888C29.3539 140.663 29.4756 140.361 29.4756 140.047C29.4756 139.733 29.3539 139.431 29.136 139.205C28.9182 138.98 28.6213 138.847 28.308 138.836C27.9946 138.847 27.6977 138.98 27.4799 139.205C27.2621 139.431 27.1403 139.733 27.1403 140.047C27.1403 140.361 27.2621 140.663 27.4799 140.888C27.6977 141.114 27.9946 141.246 28.308 141.257V141.257Z" fill="white"/>
<path d="M28.308 154.221C28.6213 154.21 28.9182 154.078 29.136 153.852C29.3539 153.626 29.4756 153.324 29.4756 153.01C29.4756 152.697 29.3539 152.395 29.136 152.169C28.9182 151.943 28.6213 151.811 28.308 151.8C27.9946 151.811 27.6977 151.943 27.4799 152.169C27.2621 152.395 27.1403 152.697 27.1403 153.01C27.1403 153.324 27.2621 153.626 27.4799 153.852C27.6977 154.078 27.9946 154.21 28.308 154.221V154.221Z" fill="white"/>
<path d="M77.3315 89.3698H39.6695C39.3573 89.3698 39.058 89.2456 38.8373 89.0246C38.6165 88.8035 38.4926 88.5038 38.4926 88.1912C38.4926 87.8787 38.6165 87.5789 38.8373 87.3579C39.058 87.1368 39.3573 87.0127 39.6695 87.0127H77.3315C77.6436 87.0127 77.943 87.1368 78.1637 87.3579C78.3844 87.5789 78.5084 87.8787 78.5084 88.1912C78.5084 88.5038 78.3844 88.8035 78.1637 89.0246C77.943 89.2456 77.6436 89.3698 77.3315 89.3698H77.3315Z" fill="white"/>
<path d="M77.3314 102.334H39.6694C39.5146 102.334 39.3612 102.304 39.2181 102.245C39.0749 102.186 38.9448 102.099 38.8352 101.99C38.7256 101.88 38.6386 101.75 38.5793 101.607C38.5199 101.464 38.4894 101.31 38.4894 101.155C38.4894 101 38.5199 100.847 38.5793 100.703C38.6386 100.56 38.7256 100.43 38.8352 100.321C38.9448 100.211 39.0749 100.124 39.2181 100.065C39.3612 100.006 39.5146 99.9762 39.6694 99.9766H77.3314C77.4862 99.9762 77.6396 100.006 77.7828 100.065C77.9259 100.124 78.056 100.211 78.1656 100.321C78.2752 100.43 78.3622 100.56 78.4215 100.703C78.4809 100.847 78.5114 101 78.5114 101.155C78.5114 101.31 78.4809 101.464 78.4215 101.607C78.3622 101.75 78.2752 101.88 78.1656 101.99C78.056 102.099 77.9259 102.186 77.7828 102.245C77.6396 102.304 77.4862 102.334 77.3314 102.334H77.3314Z" fill="white"/>
<path d="M77.3315 115.297H39.6695C39.3573 115.297 39.058 115.173 38.8373 114.952C38.6165 114.731 38.4926 114.432 38.4926 114.119C38.4926 113.806 38.6165 113.507 38.8373 113.286C39.058 113.065 39.3573 112.94 39.6695 112.94H77.3315C77.4863 112.94 77.6397 112.97 77.7828 113.029C77.926 113.088 78.0561 113.175 78.1657 113.285C78.2753 113.394 78.3623 113.524 78.4216 113.667C78.481 113.81 78.5115 113.964 78.5115 114.119C78.5115 114.274 78.481 114.428 78.4216 114.571C78.3623 114.714 78.2753 114.844 78.1657 114.953C78.0561 115.063 77.926 115.15 77.7828 115.209C77.6397 115.268 77.4863 115.298 77.3315 115.297H77.3315Z" fill="white"/>
<path d="M77.3315 128.261H39.6695C39.3573 128.261 39.058 128.137 38.8373 127.916C38.6165 127.695 38.4926 127.395 38.4926 127.083C38.4926 126.77 38.6165 126.47 38.8373 126.249C39.058 126.028 39.3573 125.904 39.6695 125.904H77.3315C77.4863 125.904 77.6397 125.934 77.7828 125.993C77.926 126.052 78.0561 126.139 78.1657 126.248C78.2753 126.358 78.3623 126.488 78.4216 126.631C78.481 126.774 78.5115 126.928 78.5115 127.083C78.5115 127.238 78.481 127.391 78.4216 127.535C78.3623 127.678 78.2753 127.808 78.1657 127.917C78.0561 128.027 77.926 128.113 77.7828 128.173C77.6397 128.232 77.4863 128.262 77.3315 128.261H77.3315Z" fill="white"/>
<path d="M77.3315 141.225H39.6695C39.3573 141.225 39.058 141.101 38.8373 140.88C38.6165 140.659 38.4926 140.359 38.4926 140.047C38.4926 139.734 38.6165 139.434 38.8373 139.213C39.058 138.992 39.3573 138.868 39.6695 138.868H77.3315C77.4863 138.868 77.6397 138.898 77.7828 138.957C77.926 139.016 78.0561 139.103 78.1657 139.212C78.2753 139.322 78.3623 139.452 78.4216 139.595C78.481 139.738 78.5115 139.892 78.5115 140.047C78.5115 140.202 78.481 140.355 78.4216 140.498C78.3623 140.642 78.2753 140.772 78.1657 140.881C78.0561 140.991 77.926 141.077 77.7828 141.136C77.6397 141.195 77.4863 141.226 77.3315 141.225H77.3315Z" fill="white"/>
<path d="M77.3314 154.189H39.6694C39.5146 154.189 39.3612 154.159 39.2181 154.1C39.0749 154.041 38.9448 153.954 38.8352 153.845C38.7256 153.735 38.6386 153.605 38.5793 153.462C38.5199 153.319 38.4894 153.165 38.4894 153.01C38.4894 152.855 38.5199 152.702 38.5793 152.559C38.6386 152.415 38.7256 152.285 38.8352 152.176C38.9448 152.066 39.0749 151.98 39.2181 151.921C39.3612 151.862 39.5146 151.831 39.6694 151.832H77.3314C77.4862 151.831 77.6396 151.862 77.7828 151.921C77.9259 151.98 78.056 152.066 78.1656 152.176C78.2752 152.285 78.3622 152.415 78.4215 152.559C78.4809 152.702 78.5114 152.855 78.5114 153.01C78.5114 153.165 78.4809 153.319 78.4215 153.462C78.3622 153.605 78.2752 153.735 78.1656 153.845C78.056 153.954 77.9259 154.041 77.7828 154.1C77.6396 154.159 77.4862 154.189 77.3314 154.189H77.3314Z" fill="white"/>
<path d="M68.2399 229.21H27.1403V188.054H55.0297V189.034H28.1194V228.23H67.2615V208.632H68.2399V229.21Z" fill="#FFFCFF" fill-opacity="0.67"/>
<path d="M47.1568 218.719C46.2056 215.88 34.2774 206.228 41.5867 204.606L47.5808 212.686L75.1388 184.827L77.9104 187.629L47.1568 218.719Z" fill="#499F68"/>
<path d="M100.733 103.838H89.7405C89.3816 103.838 89.0375 103.698 88.7837 103.45C88.5299 103.202 88.3872 102.866 88.3868 102.515V89.8299C88.3872 89.4789 88.5299 89.1424 88.7837 88.8943C89.0375 88.6461 89.3816 88.5065 89.7405 88.5061H100.733C101.092 88.5065 101.436 88.6461 101.69 88.8943C101.943 89.1424 102.086 89.4789 102.087 89.8299V102.515C102.086 102.866 101.943 103.202 101.69 103.45C101.436 103.698 101.092 103.838 100.733 103.838Z" fill="#FFD65C"/>
<path d="M94.2859 124.82H83.2935C82.9346 124.819 82.5905 124.672 82.3367 124.411C82.0829 124.15 81.9402 123.796 81.9398 123.426V110.074C81.9402 109.704 82.0829 109.35 82.3367 109.089C82.5905 108.828 82.9346 108.681 83.2935 108.68H94.2859C94.6448 108.681 94.9889 108.828 95.2427 109.089C95.4965 109.35 95.6392 109.704 95.6396 110.074V123.426C95.6392 123.796 95.4965 124.15 95.2427 124.411C94.9889 124.672 94.6448 124.819 94.2859 124.82Z" fill="#FFD65C"/>
<path d="M243.404 128.933H139.478C139.323 128.933 139.17 128.903 139.027 128.844C138.885 128.784 138.755 128.698 138.646 128.588C138.536 128.479 138.45 128.349 138.39 128.206C138.331 128.063 138.301 127.91 138.301 127.755V86.1287C138.301 85.9739 138.331 85.8207 138.39 85.6777C138.45 85.5347 138.536 85.4047 138.646 85.2953C138.755 85.1858 138.885 85.099 139.027 85.0398C139.17 84.9806 139.323 84.9502 139.478 84.9502H243.404C243.558 84.9501 243.711 84.9805 243.854 85.0397C243.997 85.0989 244.127 85.1857 244.236 85.2952C244.345 85.4046 244.432 85.5346 244.491 85.6776C244.55 85.8206 244.581 85.9739 244.58 86.1287V127.755C244.581 127.909 244.55 128.063 244.491 128.206C244.432 128.349 244.345 128.479 244.236 128.588C244.127 128.698 243.997 128.785 243.854 128.844C243.711 128.903 243.558 128.933 243.404 128.933V128.933ZM140.655 126.576H242.227V87.3072H140.655V126.576Z" fill="white"/>
<path d="M183.646 156.251H139.478C139.323 156.251 139.17 156.221 139.027 156.162C138.884 156.102 138.755 156.016 138.645 155.906C138.536 155.797 138.449 155.667 138.39 155.524C138.331 155.381 138.301 155.227 138.301 155.073V137.381C138.301 137.226 138.331 137.073 138.39 136.93C138.449 136.787 138.536 136.657 138.645 136.547C138.755 136.438 138.884 136.351 139.027 136.292C139.17 136.233 139.323 136.202 139.478 136.202H183.646C183.801 136.202 183.954 136.233 184.097 136.292C184.24 136.351 184.369 136.438 184.479 136.547C184.588 136.657 184.675 136.787 184.734 136.93C184.793 137.073 184.823 137.226 184.823 137.381V155.073C184.823 155.227 184.793 155.381 184.734 155.524C184.675 155.667 184.588 155.797 184.479 155.906C184.369 156.016 184.24 156.102 184.097 156.162C183.954 156.221 183.801 156.251 183.646 156.251V156.251ZM140.655 153.894H182.469V138.559H140.655V153.894Z" fill="white"/>
<path d="M243.403 156.251H199.235C199.08 156.251 198.927 156.221 198.784 156.162C198.642 156.102 198.512 156.016 198.402 155.906C198.293 155.797 198.206 155.667 198.147 155.524C198.088 155.381 198.058 155.227 198.058 155.073V137.381C198.058 137.226 198.088 137.073 198.147 136.93C198.206 136.787 198.293 136.657 198.402 136.547C198.512 136.438 198.642 136.351 198.784 136.292C198.927 136.233 199.08 136.202 199.235 136.202H243.403C243.558 136.202 243.711 136.233 243.854 136.292C243.997 136.351 244.126 136.438 244.236 136.547C244.345 136.657 244.432 136.787 244.491 136.93C244.55 137.073 244.58 137.226 244.58 137.381V155.073C244.58 155.227 244.55 155.381 244.491 155.524C244.432 155.667 244.345 155.797 244.236 155.906C244.126 156.016 243.997 156.102 243.854 156.162C243.711 156.221 243.558 156.251 243.403 156.251V156.251ZM200.412 153.894H242.226V138.559H200.412V153.894Z" fill="white"/>
<path d="M242.105 127.633C241.958 127.633 241.812 127.605 241.675 127.551L139.048 87.2257C138.904 87.1692 138.773 87.0849 138.661 86.9775C138.55 86.8702 138.461 86.742 138.399 86.6001C138.338 86.4583 138.304 86.3057 138.301 86.151C138.298 85.9963 138.326 85.8425 138.382 85.6985C138.439 85.5545 138.523 85.423 138.63 85.3115C138.738 85.2001 138.866 85.1109 139.007 85.049C139.149 84.9871 139.301 84.9538 139.456 84.9509C139.61 84.948 139.764 84.9756 139.908 85.0321L242.535 125.358C242.79 125.458 243.002 125.644 243.135 125.885C243.267 126.125 243.312 126.404 243.261 126.674C243.21 126.943 243.066 127.187 242.855 127.362C242.644 127.537 242.379 127.633 242.105 127.633V127.633Z" fill="white"/>
<path d="M139.478 128.934C139.205 128.934 138.939 128.838 138.728 128.664C138.517 128.49 138.374 128.247 138.322 127.978C138.27 127.709 138.313 127.431 138.444 127.19C138.576 126.95 138.786 126.762 139.04 126.661L242.966 85.0346C243.256 84.9194 243.58 84.924 243.866 85.0474C244.152 85.1708 244.378 85.4029 244.494 85.6927C244.609 85.9826 244.606 86.3066 244.483 86.5936C244.36 86.8805 244.129 87.1071 243.84 87.2236L139.915 128.85C139.776 128.905 139.628 128.934 139.478 128.934V128.934Z" fill="white"/>
<path d="M182.997 155.601C182.849 155.601 182.703 155.573 182.566 155.519L139.696 138.608C139.406 138.493 139.173 138.267 139.049 137.981C138.925 137.694 138.919 137.37 139.034 137.08C139.148 136.789 139.373 136.556 139.659 136.431C139.945 136.306 140.268 136.3 140.559 136.414L183.428 153.326C183.683 153.426 183.895 153.613 184.027 153.853C184.16 154.093 184.204 154.372 184.153 154.642C184.102 154.912 183.959 155.155 183.748 155.33C183.536 155.505 183.271 155.601 182.997 155.601V155.601Z" fill="white"/>
<path d="M140.127 155.601C139.85 155.601 139.583 155.503 139.37 155.325C139.158 155.147 139.016 154.9 138.968 154.627C138.92 154.354 138.969 154.073 139.108 153.833C139.246 153.593 139.465 153.41 139.725 153.315L182.595 137.705C182.74 137.652 182.894 137.627 183.049 137.634C183.204 137.64 183.356 137.677 183.497 137.742C183.637 137.807 183.764 137.9 183.868 138.014C183.973 138.128 184.054 138.262 184.107 138.408C184.16 138.554 184.184 138.709 184.177 138.864C184.17 139.019 184.133 139.171 184.067 139.311C184.001 139.452 183.908 139.578 183.794 139.682C183.679 139.786 183.545 139.867 183.399 139.92L140.529 155.529C140.401 155.576 140.264 155.601 140.127 155.601V155.601Z" fill="white"/>
<path d="M242.754 155.601C242.613 155.601 242.472 155.575 242.34 155.526L200.77 139.916C200.478 139.806 200.241 139.585 200.112 139.3C199.983 139.015 199.972 138.691 200.082 138.398C200.192 138.105 200.413 137.868 200.697 137.739C200.982 137.61 201.306 137.599 201.598 137.709L243.168 153.319C243.426 153.416 243.642 153.6 243.778 153.84C243.914 154.081 243.962 154.361 243.912 154.633C243.863 154.904 243.72 155.15 243.508 155.327C243.297 155.504 243.03 155.601 242.754 155.601V155.601Z" fill="white"/>
<path d="M201.184 154.3C200.906 154.3 200.636 154.201 200.424 154.021C200.211 153.841 200.07 153.591 200.024 153.316C199.978 153.041 200.031 152.759 200.173 152.519C200.316 152.28 200.538 152.099 200.801 152.008L242.371 137.699C242.517 137.647 242.672 137.626 242.827 137.635C242.982 137.644 243.133 137.683 243.273 137.751C243.412 137.819 243.537 137.913 243.639 138.03C243.742 138.146 243.821 138.281 243.871 138.428C243.922 138.574 243.943 138.73 243.933 138.885C243.923 139.039 243.883 139.191 243.815 139.33C243.747 139.469 243.652 139.594 243.535 139.696C243.419 139.799 243.283 139.877 243.137 139.927L201.567 154.236C201.444 154.279 201.314 154.3 201.184 154.3Z" fill="white"/>
<path d="M191.413 62.5329C187.921 62.5329 184.508 61.4961 181.605 59.5536C178.702 57.6111 176.439 54.8502 175.103 51.62C173.767 48.3898 173.417 44.8353 174.098 41.4061C174.779 37.977 176.461 34.8271 178.93 32.3548C181.399 29.8824 184.544 28.1988 187.969 27.5167C191.393 26.8346 194.943 27.1847 198.169 28.5227C201.395 29.8607 204.152 32.1265 206.092 35.0336C208.032 37.9407 209.067 41.3586 209.067 44.855C209.062 49.5419 207.2 54.0353 203.891 57.3495C200.581 60.6636 196.094 62.5278 191.413 62.5329V62.5329ZM191.413 29.5341C188.387 29.5341 185.429 30.4326 182.913 32.1161C180.397 33.7996 178.435 36.1924 177.277 38.9919C176.119 41.7914 175.816 44.8719 176.407 47.8439C176.997 50.8159 178.454 53.5458 180.594 55.6884C182.734 57.8311 185.46 59.2903 188.428 59.8814C191.396 60.4726 194.472 60.1692 197.268 59.0096C200.064 57.85 202.453 55.8863 204.135 53.3668C205.816 50.8473 206.713 47.8851 206.713 44.855C206.708 40.7931 205.095 36.8989 202.227 34.0267C199.358 31.1544 195.469 29.5388 191.413 29.5341V29.5341Z" fill="white"/>
<path d="M188.265 50.3115V49.4195L189.401 48.3135C192.139 45.7055 193.376 44.3175 193.392 42.7005C193.421 42.4152 193.386 42.1269 193.289 41.857C193.192 41.587 193.036 41.3424 192.832 41.1412C192.627 40.94 192.381 40.7873 192.11 40.6944C191.839 40.6015 191.55 40.5709 191.266 40.6047C190.425 40.6357 189.622 40.956 188.99 41.5116L188.528 40.4885C189.38 39.7788 190.454 39.3928 191.562 39.3986C191.988 39.3606 192.418 39.414 192.822 39.5551C193.226 39.6962 193.596 39.9218 193.906 40.217C194.216 40.5121 194.46 40.87 194.622 41.2669C194.783 41.6637 194.858 42.0904 194.842 42.5187C194.842 44.4994 193.408 46.1014 191.15 48.2801L190.292 49.0731V49.1053H195.107V50.3115H188.265Z" fill="white"/>
<path d="M206.8 229.21H165.7V188.054H193.59V189.034H166.679V228.23H205.821V208.632H206.8V229.21Z" fill="#FFFCFF" fill-opacity="0.67"/>
<path d="M185.717 218.719C184.765 215.88 172.837 206.228 180.146 204.606L186.141 212.686L213.699 184.827L216.47 187.629L185.717 218.719Z" fill="#499F68"/>
<path d="M262.263 98.1897H251.271C250.912 98.1893 250.568 98.0497 250.314 97.8016C250.06 97.5534 249.918 97.2169 249.917 96.866V84.1812C249.918 83.8302 250.06 83.4938 250.314 83.2456C250.568 82.9974 250.912 82.8578 251.271 82.8574H262.263C262.622 82.8578 262.966 82.9974 263.22 83.2456C263.474 83.4938 263.617 83.8302 263.617 84.1812V96.866C263.617 97.2169 263.474 97.5534 263.22 97.8016C262.966 98.0498 262.622 98.1893 262.263 98.1897Z" fill="#FFD65C"/>
<path d="M269.516 116.75H258.524C258.165 116.749 257.821 116.603 257.567 116.341C257.313 116.08 257.17 115.726 257.17 115.356V102.004C257.17 101.635 257.313 101.28 257.567 101.019C257.821 100.758 258.165 100.611 258.524 100.611H269.516C269.875 100.611 270.219 100.758 270.473 101.019C270.727 101.28 270.869 101.635 270.87 102.004V115.356C270.869 115.726 270.727 116.08 270.473 116.341C270.219 116.603 269.875 116.749 269.516 116.75Z" fill="#FFD65C"/>
<path d="M263.875 137.731H252.883C252.524 137.731 252.18 137.584 251.926 137.322C251.672 137.061 251.529 136.707 251.529 136.338V122.985C251.529 122.616 251.672 122.262 251.926 122C252.18 121.739 252.524 121.592 252.883 121.592H263.875C264.234 121.592 264.578 121.739 264.832 122C265.086 122.262 265.229 122.616 265.229 122.985V136.338C265.229 136.707 265.086 137.061 264.832 137.322C264.578 137.584 264.234 137.731 263.875 137.731Z" fill="#FFD65C"/>
<path fill-rule="evenodd" clip-rule="evenodd" d="M297.413 129.606H332.725L326.904 135.427C326.416 135.915 326.416 136.707 326.904 137.195C327.392 137.683 328.183 137.683 328.671 137.195L336.626 129.24C337.115 128.752 337.115 127.96 336.626 127.472L328.671 119.517C328.183 119.029 327.392 119.029 326.904 119.517C326.416 120.005 326.416 120.797 326.904 121.285L332.725 127.106H297.413V129.606Z" fill="white"/>
</svg>
