<svg width="597" height="427" viewBox="0 0 597 427" fill="none" xmlns="http://www.w3.org/2000/svg">
<path opacity="0.1" d="M586.888 339.075C572.101 369.589 542.059 389.994 510.938 403.45C486.021 414.152 459.681 421.181 432.745 424.316C427.585 424.929 422.41 425.404 417.217 425.741C403.949 426.606 390.638 426.591 377.372 425.697C369.392 425.166 361.44 424.318 353.516 423.153C325.982 419.136 299.138 411.319 273.752 399.926C266.425 396.626 259.247 393.024 252.218 389.119C240.476 382.612 229.226 375.254 218.557 367.106C216.197 365.302 213.866 363.46 211.565 361.578L210.618 360.804C208.809 359.312 207.016 357.786 205.196 356.305C202.17 353.771 198.958 351.467 195.587 349.413C195.358 349.279 195.13 349.146 194.896 349.018C194.273 348.656 193.638 348.316 192.992 347.993C191.662 347.323 190.298 346.721 188.906 346.19C182.475 343.74 175.589 342.849 168.607 343C167.449 343 166.291 343.077 165.128 343.155C163.502 343.267 161.871 343.434 160.245 343.645L159.644 343.729C154.463 344.462 149.342 345.561 144.317 347.019C136.556 349.246 128.934 352.03 121.262 354.541C118.005 355.615 114.743 356.64 111.453 357.558L110.729 357.759C106.049 359.075 101.286 360.072 96.471 360.743C85.5297 362.141 74.4171 361.246 63.8407 358.115L63.4733 358.009L62.7941 357.809L61.8643 357.519C60.3055 357.029 58.7596 356.493 57.2267 355.91L56.297 355.554C54.8123 354.982 53.3593 354.368 51.9377 353.711L51.008 353.288C49.5233 352.598 48.0703 351.868 46.6487 351.1C46.1365 350.833 45.6299 350.543 45.1288 350.27C43.6145 349.424 42.1299 348.537 40.675 347.609C39.131 346.626 37.6203 345.599 36.1431 344.531C35.4602 344.041 34.7847 343.538 34.1166 343.022C30.2654 340.076 26.659 336.823 23.3327 333.296C23.1489 333.112 22.9764 332.923 22.8038 332.739C21.9186 331.781 21.0501 330.807 20.2094 329.81C19.8976 329.443 19.5858 329.076 19.2796 328.697C18.2812 327.48 17.3181 326.234 16.3902 324.961C16.251 324.778 16.1174 324.588 15.9838 324.405C12.1798 319.144 9.02619 313.442 6.59164 307.424C6.5137 307.24 6.44133 307.051 6.37452 306.867C5.6322 304.956 4.95484 303.013 4.34243 301.038C4.0919 300.214 3.85251 299.368 3.64095 298.544C3.56857 298.299 3.50176 298.049 3.44052 297.804C0.367343 285.706 0.0166016 273.129 0.0166016 260.625C0.0166016 259.166 0.0166016 257.71 0.0166016 256.255C0.105679 236.028 0.41745 215.457 3.40155 195.509C3.40155 195.37 3.44052 195.231 3.46279 195.097C4.46155 188.382 5.82009 181.725 7.53253 175.155C9.32476 168.261 11.6153 161.507 14.3859 154.946C21.2505 138.8 31.2327 124.108 42.3173 110.49C55.679 94.1055 70.9892 78.9846 88.042 66.5081C90.4916 64.7155 92.9747 62.9747 95.4911 61.286L96.6547 60.5232C97.0611 60.2504 97.4675 59.9665 97.8739 59.7271C98.709 59.1704 99.5441 58.647 100.39 58.1181L101.337 57.528L103.141 56.4145L103.697 56.0972L104.661 55.5405L105.613 54.9837C106.726 54.3268 107.852 53.6847 108.992 53.0574C113.858 50.3443 118.839 47.8649 123.935 45.6194C125.438 44.9551 126.95 44.3148 128.472 43.6987C135.381 40.8849 142.478 38.5576 149.712 36.734C152.384 36.0584 155.073 35.4646 157.779 34.9524C160.971 34.3363 164.179 33.8259 167.405 33.4214C172.537 32.7756 177.699 32.391 182.871 32.2689C219.237 31.3837 255.97 43.2199 284.469 65.9069C295.827 74.9483 306.032 85.6543 318.786 92.5856C329.921 98.6206 342.954 101.12 354.88 96.3714C364.734 92.4464 371.147 90.4979 382.215 91.0936C405.117 92.3836 427.696 97.1054 449.196 105.101C450.065 105.418 450.933 105.747 451.796 106.075C507.865 127.537 556.073 170.156 581.114 224.922C581.775 226.369 582.419 227.828 583.046 229.297C597.984 264.177 603.373 305.069 586.888 339.075Z" fill="#9DA3AA"/>
<path d="M111.436 146.477V357.569L110.712 357.769C106.033 359.086 101.269 360.083 96.4544 360.754C85.5131 362.152 74.4005 361.257 63.8241 358.126L63.4567 358.02L62.7775 357.82L61.8477 357.53C60.2888 357.04 58.743 356.504 57.2101 355.921L56.2803 355.565C54.7957 354.993 53.3427 354.379 51.9211 353.722L50.9914 353.299C49.5067 352.609 48.0537 351.879 46.6321 351.111C46.1199 350.844 45.6133 350.554 45.1122 350.281C43.5979 349.435 42.1133 348.548 40.6584 347.62C39.1144 346.637 37.6037 345.61 36.1265 344.541C35.4436 344.052 34.7681 343.549 34.1 343.033C30.2488 340.087 26.6424 336.834 23.3161 333.307C23.1323 333.123 22.9598 332.934 22.7872 332.75C21.902 331.792 21.0335 330.818 20.1928 329.821C19.881 329.454 19.5692 329.086 19.263 328.708C18.2646 327.49 17.3015 326.245 16.3736 324.972C16.2344 324.788 16.1008 324.599 15.9672 324.415C12.1632 319.155 9.00959 313.453 6.57504 307.435C6.4971 307.251 6.42472 307.062 6.35792 306.878C5.6156 304.967 4.93824 303.024 4.32583 301.049C4.0753 300.225 3.8359 299.379 3.62434 298.555C3.55197 298.31 3.48516 298.06 3.42392 297.815C0.350742 285.717 0 273.14 0 260.636C0 259.177 0 257.72 0 256.266C0.0890776 236.039 0.400848 215.468 3.38495 195.52C3.38495 195.381 3.42392 195.242 3.44619 195.108C4.44495 188.393 5.80348 181.736 7.51592 175.166H64.3697V146.477H75.7048V123.434H100.101V146.477H111.436Z" fill="#424B54"/>
<path d="M586.888 339.075C572.101 369.589 542.06 389.994 510.938 403.45C486.021 414.152 459.681 421.181 432.745 424.316C427.586 424.929 422.41 425.404 417.217 425.742C403.949 426.606 390.638 426.591 377.372 425.697C369.392 425.166 361.44 424.318 353.516 423.153C325.982 419.136 299.138 411.319 273.752 399.926C266.426 396.626 259.247 393.024 252.218 389.12C240.476 382.612 229.226 375.254 218.557 367.106C216.197 365.302 213.866 363.46 211.565 361.578L210.618 360.804C208.809 359.312 207.016 357.786 205.196 356.306C202.17 353.771 198.958 351.467 195.587 349.413C195.358 349.28 195.13 349.146 194.896 349.018C194.273 348.656 193.638 348.316 192.992 347.993C191.662 347.323 190.298 346.721 188.906 346.19V259.834H292.23V279.059H337.576V138.438H390.951V194.669H417.351V161.376H439.164V125.812H449.185V105.101C450.053 105.418 450.922 105.747 451.785 106.075V125.812H461.539V161.398H483.335V194.691H515.475V321.532H566.561V229.286H583.024C597.984 264.177 603.373 305.069 586.888 339.075Z" fill="#424B54"/>
<path opacity="0.75" d="M377.383 158.6H353.527V182.456H377.383V158.6Z" fill="#FFFCFF"/>
<path opacity="0.75" d="M377.383 208.049H353.527V231.905H377.383V208.049Z" fill="#FFFCFF"/>
<path opacity="0.75" d="M377.383 257.503H353.527V281.36H377.383V257.503Z" fill="#FFFCFF"/>
<path opacity="0.75" d="M377.383 306.958H353.527V330.815H377.383V306.958Z" fill="#FFFCFF"/>
<path opacity="0.75" d="M377.383 356.408H353.527V380.264H377.383V356.408Z" fill="#FFFCFF"/>
<path opacity="0.75" d="M377.383 405.852V424.691C369.403 424.161 361.451 423.313 353.527 422.147V405.852H377.383Z" fill="#FFFCFF"/>
<path opacity="0.75" d="M280.277 289.666H196.772V300.472H280.277V289.666Z" fill="#FFFCFF"/>
<path opacity="0.75" d="M280.277 322.486H196.772V333.292H280.277V322.486Z" fill="#FFFCFF"/>
<path opacity="0.75" d="M280.277 355.305V366.106H218.569C216.208 364.302 213.877 362.459 211.576 360.578L210.63 359.804C208.82 358.312 207.028 356.786 205.207 355.305H280.277Z" fill="#FFFCFF"/>
<path opacity="0.75" d="M280.277 388.119V398.926H273.763C266.437 395.626 259.258 392.024 252.229 388.119H280.277Z" fill="#FFFCFF"/>
<path opacity="0.75" d="M432.756 223.198H417.229V238.725H432.756V223.198Z" fill="#FFFCFF"/>
<path opacity="0.75" d="M96.4878 150.833H80.9604V166.361H96.4878V150.833Z" fill="#FFFCFF"/>
<path opacity="0.75" d="M96.4878 186.91H80.9604V202.437H96.4878V186.91Z" fill="#FFFCFF"/>
<path opacity="0.75" d="M96.4878 222.98H80.9604V238.508H96.4878V222.98Z" fill="#FFFCFF"/>
<path opacity="0.75" d="M96.4878 259.057H80.9604V274.584H96.4878V259.057Z" fill="#FFFCFF"/>
<path opacity="0.75" d="M96.4878 295.133H80.9604V310.661H96.4878V295.133Z" fill="#FFFCFF"/>
<path opacity="0.75" d="M96.4878 331.204H80.9604V346.731H96.4878V331.204Z" fill="#FFFCFF"/>
<path opacity="0.75" d="M492.042 223.198H476.515V238.725H492.042V223.198Z" fill="#FFFCFF"/>
<path opacity="0.75" d="M432.756 261.501H417.229V277.028H432.756V261.501Z" fill="#FFFCFF"/>
<path opacity="0.75" d="M492.042 261.501H476.515V277.028H492.042V261.501Z" fill="#FFFCFF"/>
<path opacity="0.75" d="M432.756 299.81H417.229V315.337H432.756V299.81Z" fill="#FFFCFF"/>
<path opacity="0.75" d="M492.042 299.81H476.515V315.337H492.042V299.81Z" fill="#FFFCFF"/>
<path opacity="0.75" d="M432.756 338.119H417.229V353.646H432.756V338.119Z" fill="#FFFCFF"/>
<path opacity="0.75" d="M492.042 338.119H476.515V353.646H492.042V338.119Z" fill="#FFFCFF"/>
<path opacity="0.75" d="M432.756 376.422H417.229V391.95H432.756V376.422Z" fill="#FFFCFF"/>
<path opacity="0.75" d="M492.042 376.422H476.515V391.95H492.042V376.422Z" fill="#FFFCFF"/>
<path opacity="0.75" d="M417.229 424.741V414.726H432.756V423.316L417.229 424.741Z" fill="#FFFCFF"/>
<path opacity="0.75" d="M3.39062 194.114V203.022H62.7776V194.114H3.39062ZM8.67961 202.465H4.32037V194.671H8.67961V202.465ZM13.9686 202.465H9.60935V194.671H13.9686V202.465ZM19.2576 202.465H14.8983V194.671H19.2576V202.465ZM24.5466 202.465H20.1873V194.671H24.5466V202.465ZM29.8355 202.465H25.4763V194.671H29.8355V202.465ZM35.1245 202.465H30.7653V194.671H35.1245V202.465ZM40.4135 202.465H36.0543V194.671H40.4135V202.465ZM45.7025 202.465H41.3433V194.671H45.7025V202.465ZM50.9915 202.465H46.6322V194.671H50.9915V202.465ZM56.2805 202.465H51.9212V194.671H56.2805V202.465ZM61.8478 202.465H57.2102V194.671H61.8478V202.465Z" fill="#FFFCFF"/>
<path opacity="0.75" d="M3.39062 219.98V228.86H62.7776V219.98H3.39062ZM8.67961 228.303H4.32037V220.536H8.67961V228.303ZM13.9686 228.303H9.60935V220.536H13.9686V228.303ZM19.2576 228.303H14.8983V220.536H19.2576V228.303ZM24.5466 228.303H20.1873V220.536H24.5466V228.303ZM29.8355 228.303H25.4763V220.536H29.8355V228.303ZM35.1245 228.303H30.7653V220.536H35.1245V228.303ZM40.4135 228.303H36.0543V220.536H40.4135V228.303ZM45.7025 228.303H41.3433V220.536H45.7025V228.303ZM50.9915 228.303H46.6322V220.536H50.9915V228.303ZM56.2805 228.303H51.9212V220.536H56.2805V228.303ZM61.8478 228.303H57.2102V220.536H61.8478V228.303Z" fill="#FFFCFF"/>
<path opacity="0.75" d="M3.39062 245.84V254.72H62.7776V245.84H3.39062ZM8.67961 254.163H4.32037V246.397H8.67961V254.163ZM13.9686 254.163H9.60935V246.397H13.9686V254.163ZM19.2576 254.163H14.8983V246.397H19.2576V254.163ZM24.5466 254.163H20.1873V246.397H24.5466V254.163ZM29.8355 254.163H25.4763V246.397H29.8355V254.163ZM35.1245 254.163H30.7653V246.397H35.1245V254.163ZM40.4135 254.163H36.0543V246.397H40.4135V254.163ZM45.7025 254.163H41.3433V246.397H45.7025V254.163ZM50.9915 254.163H46.6322V246.397H50.9915V254.163ZM56.2805 254.163H51.9212V246.397H56.2805V254.163ZM61.8478 254.163H57.2102V246.397H61.8478V254.163Z" fill="#FFFCFF"/>
<path opacity="0.75" d="M3.39062 271.678V280.586H62.7776V271.678H3.39062ZM8.67961 280.029H4.32037V272.235H8.67961V280.029ZM13.9686 280.029H9.60935V272.235H13.9686V280.029ZM19.2576 280.029H14.8983V272.235H19.2576V280.029ZM24.5466 280.029H20.1873V272.235H24.5466V280.029ZM29.8355 280.029H25.4763V272.235H29.8355V280.029ZM35.1245 280.029H30.7653V272.235H35.1245V280.029ZM40.4135 280.029H36.0543V272.235H40.4135V280.029ZM45.7025 280.029H41.3433V272.235H45.7025V280.029ZM50.9915 280.029H46.6322V272.235H50.9915V280.029ZM56.2805 280.029H51.9212V272.235H56.2805V280.029ZM61.8478 280.029H57.2102V272.235H61.8478V280.029Z" fill="#FFFCFF"/>
<path opacity="0.75" d="M3.61865 297.561C3.83021 298.396 4.06961 299.231 4.32014 300.055V298.118H8.67938V305.912H6.35222C6.41903 306.096 6.49141 306.285 6.56935 306.469H62.7996V297.561H3.61865ZM13.9684 305.912H9.60912V298.118H13.9684V305.912ZM19.2573 305.912H14.8981V298.118H19.2573V305.912ZM24.5463 305.912H20.1871V298.118H24.5463V305.912ZM29.8353 305.912H25.4761V298.118H29.8353V305.912ZM35.1243 305.912H30.7651V298.118H35.1243V305.912ZM40.4133 305.912H36.054V298.118H40.4133V305.912ZM45.7023 305.912H41.343V298.118H45.7023V305.912ZM50.9912 305.912H46.632V298.118H50.9912V305.912ZM56.2802 305.912H51.921V298.118H56.2802V305.912ZM61.8476 305.912H57.21V298.118H61.8476V305.912Z" fill="#FFFCFF"/>
<path opacity="0.75" d="M15.9617 323.421C16.0953 323.605 16.2289 323.794 16.3681 323.978H19.2575V327.714C19.5637 328.087 19.8755 328.454 20.1873 328.827V323.983H24.5465V331.778H22.7817C22.9543 331.961 23.1268 332.151 23.3106 332.334H62.7775V323.427L15.9617 323.421ZM29.8355 331.772H25.4763V323.978H29.8355V331.772ZM35.1245 331.772H30.7653V323.978H35.1245V331.772ZM40.4135 331.772H36.0542V323.978H40.4135V331.772ZM45.7025 331.772H41.3432V323.978H45.7025V331.772ZM50.9914 331.772H46.6322V323.978H50.9914V331.772ZM56.2804 331.772H51.9212V323.978H56.2804V331.772ZM61.8478 331.772H57.2102V323.978H61.8478V331.772Z" fill="#FFFCFF"/>
<path opacity="0.75" d="M45.1123 349.281C45.6134 349.565 46.12 349.838 46.6322 350.111V349.838H50.9914V352.299L51.9212 352.722V349.838H56.2804V354.565L57.2102 354.921V349.838H61.8478V356.519L62.7775 356.809V349.281H45.1123Z" fill="#FFFCFF"/>
<path d="M224.771 120.111L224.725 120.132L224.726 120.132L224.726 120.132L224.726 120.134L224.729 120.139L224.74 120.163C224.749 120.184 224.762 120.215 224.779 120.255C224.813 120.335 224.861 120.453 224.914 120.6C225.022 120.894 225.155 121.308 225.257 121.785C225.443 122.653 225.524 123.724 225.17 124.668C225.175 124.594 225.18 124.509 225.185 124.414C225.204 124.069 225.216 123.598 225.194 123.088C225.172 122.579 225.116 122.031 224.994 121.534C224.873 121.039 224.686 120.589 224.401 120.282L224.374 120.253L224.339 120.273L222.725 121.203L222.683 121.227L222.706 121.27L222.75 121.246L222.706 121.27L222.706 121.27L222.706 121.27L222.707 121.272L222.71 121.278L222.722 121.302C222.733 121.324 222.749 121.356 222.769 121.397C222.809 121.481 222.864 121.603 222.928 121.757C223.056 122.064 223.215 122.499 223.342 123.008C223.575 123.945 223.696 125.126 223.312 126.22C223.315 126.139 223.318 126.043 223.321 125.935C223.329 125.571 223.329 125.071 223.294 124.526C223.26 123.982 223.191 123.392 223.061 122.849C222.932 122.306 222.741 121.806 222.461 121.444L222.43 121.404L222.391 121.435L220.96 122.549L220.927 122.574L220.946 122.611L220.991 122.588L220.946 122.611L220.946 122.611L220.946 122.611L220.947 122.612L220.95 122.618L220.962 122.642C220.972 122.664 220.987 122.695 221.006 122.736C221.043 122.817 221.096 122.936 221.156 123.085C221.278 123.382 221.43 123.8 221.555 124.278C221.786 125.167 221.919 126.258 221.589 127.184C221.584 127.072 221.577 126.924 221.567 126.751C221.544 126.348 221.506 125.807 221.444 125.256C221.382 124.706 221.296 124.143 221.177 123.697C221.118 123.474 221.051 123.278 220.973 123.127C220.895 122.977 220.804 122.862 220.693 122.815L220.664 122.803L220.641 122.823C220.094 123.283 219.607 123.81 219.191 124.391L219.173 124.415L219.186 124.441L219.231 124.42L219.186 124.441L219.186 124.441L219.186 124.441L219.187 124.443L219.189 124.447L219.197 124.464C219.204 124.479 219.214 124.502 219.227 124.531C219.253 124.59 219.289 124.674 219.33 124.78C219.413 124.99 219.517 125.282 219.602 125.608C219.687 125.934 219.752 126.292 219.759 126.635C219.765 126.918 219.73 127.188 219.636 127.422C219.626 127.349 219.612 127.254 219.595 127.145C219.555 126.88 219.498 126.527 219.431 126.173C219.364 125.82 219.287 125.464 219.207 125.195C219.167 125.061 219.125 124.946 219.083 124.863C219.062 124.822 219.04 124.786 219.015 124.76C218.992 124.734 218.961 124.711 218.922 124.709L218.894 124.708L218.878 124.732L218.919 124.759L218.878 124.732L218.878 124.732L218.878 124.732L218.877 124.733L218.874 124.737L218.864 124.753C218.854 124.767 218.841 124.788 218.824 124.815C218.789 124.869 218.74 124.948 218.681 125.046C218.562 125.242 218.402 125.517 218.238 125.832C218.041 126.21 217.837 126.65 217.692 127.082C217.845 126.2 218.174 125.355 218.661 124.597L218.724 124.499L218.61 124.521C217.941 124.647 217.32 124.951 216.811 125.399C216.815 125.388 216.819 125.377 216.823 125.366C216.872 125.245 216.957 125.081 217.104 124.914C217.397 124.581 217.94 124.227 218.945 124.169L218.968 124.168L218.982 124.148L218.942 124.119L218.982 124.148L218.982 124.148L218.982 124.148L218.983 124.147L218.985 124.144L218.994 124.133L219.027 124.088C219.055 124.049 219.097 123.994 219.147 123.927C219.248 123.793 219.385 123.614 219.531 123.432C219.676 123.25 219.83 123.066 219.965 122.922C220.032 122.851 220.094 122.789 220.147 122.744C220.201 122.697 220.241 122.671 220.265 122.663L220.254 122.566L220.25 122.616L220.254 122.566L220.254 122.566L220.254 122.566L220.253 122.566L220.248 122.566L220.231 122.564C220.216 122.563 220.193 122.562 220.164 122.56C220.107 122.556 220.023 122.552 219.919 122.548C219.71 122.541 219.42 122.537 219.091 122.55C218.522 122.572 217.835 122.645 217.259 122.843C217.259 122.843 217.259 122.843 217.259 122.842C217.396 122.737 217.605 122.601 217.893 122.483C218.467 122.246 219.355 122.077 220.607 122.358L220.63 122.364L220.649 122.348L222.058 121.196L222.147 121.123L222.033 121.108L222.026 121.157L222.033 121.108L222.033 121.108L222.032 121.108L222.031 121.107L222.025 121.107L222.003 121.104C221.983 121.101 221.954 121.097 221.916 121.093C221.842 121.084 221.734 121.071 221.601 121.057C221.335 121.029 220.968 120.997 220.566 120.976C220.165 120.956 219.728 120.948 219.32 120.971C219.049 120.986 218.79 121.014 218.563 121.062C218.724 120.975 218.961 120.871 219.275 120.789C219.945 120.615 220.971 120.539 222.391 120.944L222.412 120.95L222.43 120.938L223.967 120.02L224.075 119.955L223.952 119.928C222.859 119.689 221.742 119.581 220.624 119.606C220.794 119.549 221.05 119.48 221.387 119.437C222.063 119.351 223.067 119.367 224.377 119.78L224.395 119.785L224.413 119.778L225.526 119.282L225.671 119.218L225.515 119.187L225.506 119.236L225.515 119.187L225.515 119.187L225.515 119.187L225.514 119.187L225.51 119.186L225.496 119.184L225.442 119.173L225.247 119.136C225.083 119.105 224.86 119.063 224.622 119.02C224.147 118.933 223.612 118.839 223.379 118.814C223.159 118.79 223.038 118.747 222.974 118.713C223.978 118.565 225.003 118.688 225.943 119.071L225.962 119.079L225.98 119.072L225.962 119.025L225.98 119.072L225.98 119.072L225.98 119.071L225.982 119.071L225.987 119.069L226.006 119.062L226.079 119.033C226.143 119.009 226.233 118.974 226.341 118.932C226.557 118.847 226.845 118.732 227.132 118.613C227.418 118.494 227.705 118.37 227.917 118.267C228.023 118.215 228.112 118.168 228.174 118.128C228.205 118.109 228.231 118.09 228.249 118.072C228.259 118.063 228.268 118.052 228.274 118.04C228.281 118.028 228.288 118.009 228.282 117.988L228.273 117.953L228.237 117.951L228.234 118C228.237 117.951 228.237 117.951 228.236 117.951L228.236 117.951L228.234 117.95L228.227 117.95L228.198 117.949C228.173 117.947 228.135 117.946 228.087 117.944C227.99 117.94 227.847 117.936 227.667 117.934C227.306 117.93 226.793 117.935 226.182 117.971C224.96 118.041 223.346 118.232 221.78 118.714C220.215 119.196 218.694 119.972 217.663 121.215C216.632 122.458 216.097 124.164 216.491 126.496C216.411 126.977 216.483 127.47 216.699 127.907C216.915 128.346 217.266 128.706 217.699 128.934L217.772 128.973L217.772 128.89L217.772 128.89L217.772 128.89V128.89L217.772 128.89L217.773 128.886C217.773 128.882 217.773 128.876 217.775 128.868C217.777 128.852 217.782 128.83 217.791 128.802C217.81 128.748 217.848 128.677 217.925 128.612C218.078 128.483 218.4 128.367 219.072 128.483L219.073 128.483C219.553 128.562 220.041 128.585 220.526 128.55C221.186 128.507 221.813 128.25 222.314 127.82L222.318 127.818C222.326 127.815 222.337 127.81 222.351 127.803C222.379 127.79 222.421 127.77 222.474 127.743C222.58 127.688 222.733 127.603 222.92 127.483C223.296 127.241 223.81 126.855 224.37 126.278C225.489 125.126 226.788 123.212 227.517 120.161L227.522 120.154L227.556 120.111C227.585 120.074 227.627 120.021 227.677 119.956C227.777 119.825 227.91 119.648 228.041 119.459C228.173 119.271 228.304 119.071 228.4 118.896C228.448 118.809 228.488 118.727 228.515 118.655C228.541 118.584 228.557 118.517 228.551 118.462L228.543 118.396L228.481 118.422L226.254 119.38L226.206 119.4L226.229 119.447L226.229 119.447L226.229 119.447L226.229 119.447L226.229 119.448L226.231 119.451L226.237 119.465C226.242 119.477 226.25 119.494 226.26 119.517C226.279 119.563 226.307 119.631 226.338 119.716C226.4 119.887 226.476 120.128 226.534 120.411C226.637 120.914 226.68 121.543 226.482 122.137C226.48 122.077 226.477 122.006 226.473 121.928C226.459 121.657 226.437 121.297 226.4 120.938C226.364 120.58 226.314 120.221 226.245 119.955C226.211 119.823 226.171 119.709 226.124 119.63C226.079 119.555 226.015 119.492 225.93 119.504C225.917 119.505 225.902 119.509 225.892 119.512C225.878 119.517 225.861 119.524 225.842 119.531C225.803 119.547 225.753 119.569 225.696 119.595C225.583 119.648 225.439 119.718 225.299 119.787C225.159 119.857 225.021 119.927 224.918 119.979L224.795 120.042L224.76 120.06L224.751 120.064L224.749 120.066L224.748 120.066L224.748 120.066L224.748 120.066L224.771 120.111ZM224.771 120.111L224.725 120.132L224.705 120.088L224.748 120.066L224.771 120.111Z" fill="#57BD7B" stroke="#FFFCFF" stroke-width="0.1"/>
<path d="M282.404 156.649L282.411 156.698L282.411 156.698L282.412 156.698L282.413 156.698L282.42 156.697L282.445 156.694C282.468 156.691 282.501 156.687 282.545 156.682C282.631 156.672 282.757 156.66 282.913 156.651C283.226 156.631 283.66 156.621 284.147 156.659C285.032 156.728 286.082 156.953 286.888 157.559C286.819 157.533 286.739 157.504 286.649 157.472C286.324 157.358 285.874 157.212 285.379 157.089C284.884 156.966 284.341 156.865 283.83 156.841C283.32 156.817 282.835 156.869 282.459 157.055L282.424 157.073L282.433 157.112L282.873 158.888L282.885 158.934L282.931 158.925L282.922 158.876L282.931 158.925L282.932 158.925L282.932 158.925L282.934 158.925L282.94 158.923L282.967 158.918C282.991 158.914 283.026 158.908 283.072 158.901C283.163 158.886 283.296 158.867 283.461 158.85C283.793 158.815 284.255 158.786 284.778 158.81C285.743 158.852 286.909 159.072 287.85 159.751C287.772 159.724 287.681 159.694 287.577 159.661C287.23 159.55 286.75 159.408 286.217 159.286C285.685 159.165 285.099 159.064 284.54 159.033C283.982 159.003 283.448 159.043 283.02 159.208L282.973 159.226L282.992 159.273L283.654 160.943L283.67 160.981L283.71 160.974L283.701 160.925L283.71 160.974L283.71 160.974L283.71 160.974L283.712 160.974L283.718 160.972L283.745 160.968C283.768 160.964 283.802 160.959 283.847 160.953C283.936 160.941 284.065 160.924 284.225 160.909C284.544 160.879 284.988 160.853 285.482 160.87C286.397 160.901 287.477 161.08 288.271 161.644C288.163 161.617 288.023 161.581 287.859 161.542C287.466 161.448 286.937 161.329 286.392 161.231C285.847 161.133 285.283 161.056 284.822 161.044C284.592 161.039 284.385 161.049 284.218 161.083C284.052 161.117 283.917 161.175 283.84 161.272L283.821 161.296L283.834 161.324C284.129 161.978 284.506 162.594 284.954 163.155L284.972 163.178L285 163.173L284.993 163.124L285 163.173L285.001 163.173L285.001 163.173L285.002 163.173L285.007 163.172L285.025 163.169C285.042 163.167 285.067 163.164 285.098 163.16C285.161 163.152 285.253 163.141 285.366 163.131C285.591 163.112 285.9 163.096 286.237 163.108C286.573 163.12 286.935 163.16 287.267 163.254C287.541 163.332 287.792 163.445 287.99 163.607C287.917 163.596 287.821 163.582 287.71 163.567C287.444 163.53 287.089 163.484 286.731 163.448C286.372 163.411 286.009 163.384 285.729 163.384C285.589 163.384 285.468 163.391 285.377 163.408C285.331 163.417 285.291 163.428 285.259 163.444C285.228 163.46 285.197 163.483 285.185 163.52L285.176 163.546L285.194 163.568L285.232 163.536L285.194 163.568L285.194 163.568L285.194 163.568L285.195 163.569L285.198 163.573L285.21 163.588C285.221 163.6 285.237 163.619 285.258 163.643C285.3 163.692 285.361 163.761 285.438 163.846C285.592 164.016 285.809 164.248 286.064 164.495C286.38 164.802 286.755 165.135 287.139 165.405C286.329 165.005 285.605 164.444 285.014 163.754L284.938 163.665L284.926 163.781C284.857 164.46 284.971 165.144 285.255 165.762C285.246 165.755 285.236 165.747 285.226 165.739C285.124 165.659 284.991 165.532 284.873 165.345C284.636 164.972 284.451 164.354 284.679 163.38L284.685 163.357L284.67 163.338L284.631 163.369L284.67 163.338L284.67 163.338L284.67 163.338L284.67 163.337L284.667 163.334L284.658 163.323L284.625 163.278C284.595 163.24 284.554 163.184 284.504 163.117C284.404 162.983 284.27 162.8 284.137 162.609C284.003 162.418 283.869 162.219 283.769 162.051C283.719 161.967 283.678 161.892 283.649 161.829C283.62 161.765 283.607 161.721 283.606 161.698L283.51 161.681L283.556 161.699L283.51 161.681L283.51 161.681L283.509 161.681L283.509 161.682L283.507 161.686L283.501 161.702C283.496 161.717 283.488 161.738 283.478 161.765C283.458 161.819 283.431 161.898 283.398 161.997C283.332 162.195 283.245 162.473 283.165 162.792C283.025 163.344 282.901 164.023 282.927 164.631C282.864 164.469 282.793 164.231 282.761 163.922C282.697 163.304 282.786 162.404 283.411 161.283L283.422 161.262L283.413 161.239L282.712 159.569L282.667 159.464L282.62 159.568L282.665 159.589L282.62 159.568L282.62 159.568L282.62 159.568L282.619 159.57L282.617 159.575L282.607 159.596C282.599 159.614 282.587 159.641 282.572 159.675C282.542 159.744 282.498 159.844 282.447 159.968C282.343 160.215 282.206 160.557 282.071 160.937C281.937 161.316 281.804 161.733 281.71 162.13C281.649 162.388 281.604 162.639 281.585 162.866C281.55 162.688 281.521 162.437 281.532 162.121C281.557 161.43 281.777 160.424 282.563 159.175L282.574 159.157L282.569 159.136L282.124 157.399L282.093 157.277L282.032 157.387C281.492 158.361 281.072 159.395 280.779 160.468C280.779 160.468 280.779 160.468 280.779 160.468C280.772 160.288 280.779 160.023 280.834 159.686C280.943 159.014 281.244 158.054 282.011 156.916L282.022 156.901L282.019 156.882L281.858 155.69L281.837 155.535L281.764 155.674L281.808 155.697L281.764 155.674L281.764 155.674L281.764 155.674L281.763 155.675L281.762 155.678L281.755 155.691L281.73 155.739L281.639 155.914C281.563 156.061 281.459 156.262 281.35 156.477C281.132 156.905 280.889 157.393 280.793 157.621C280.704 157.834 280.629 157.936 280.579 157.984C280.723 156.976 281.133 156.024 281.769 155.227L281.782 155.212L281.78 155.192L281.73 155.196L281.78 155.192L281.78 155.192L281.78 155.191L281.78 155.19L281.779 155.185L281.778 155.164L281.771 155.085C281.765 155.017 281.757 154.92 281.746 154.804C281.725 154.572 281.695 154.261 281.66 153.951C281.625 153.641 281.585 153.329 281.545 153.095C281.524 152.978 281.503 152.878 281.482 152.807C281.471 152.772 281.46 152.741 281.447 152.718C281.441 152.706 281.433 152.694 281.424 152.685C281.414 152.675 281.398 152.664 281.376 152.663L281.339 152.662L281.327 152.696L281.374 152.713C281.327 152.696 281.327 152.696 281.327 152.696L281.327 152.696L281.326 152.698L281.323 152.705L281.314 152.732C281.306 152.756 281.293 152.792 281.278 152.838C281.247 152.93 281.203 153.065 281.15 153.238C281.044 153.583 280.903 154.078 280.763 154.674C280.484 155.867 280.209 157.471 280.228 159.11C280.246 160.749 280.558 162.429 281.457 163.77C282.356 165.112 283.839 166.109 286.186 166.39C286.624 166.603 287.118 166.672 287.597 166.589C288.08 166.505 288.523 166.271 288.864 165.92L288.92 165.863L288.844 165.838L288.844 165.838L288.844 165.838L288.844 165.838L288.844 165.838L288.844 165.838L288.84 165.836C288.836 165.835 288.831 165.832 288.824 165.829C288.809 165.822 288.789 165.81 288.765 165.792C288.719 165.757 288.662 165.699 288.622 165.605C288.542 165.418 288.523 165.077 288.823 164.477L288.823 164.476C289.038 164.039 289.198 163.577 289.3 163.101C289.445 162.456 289.376 161.781 289.106 161.178L289.105 161.174C289.104 161.166 289.102 161.154 289.1 161.139C289.096 161.108 289.088 161.063 289.077 161.004C289.055 160.887 289.017 160.716 288.955 160.502C288.83 160.074 288.606 159.471 288.212 158.77C287.425 157.37 285.959 155.582 283.24 154.017L283.235 154.01L283.204 153.965C283.176 153.927 283.137 153.871 283.088 153.805C282.991 153.672 282.859 153.495 282.715 153.315C282.571 153.136 282.417 152.953 282.276 152.812C282.205 152.741 282.137 152.68 282.075 152.634C282.015 152.59 281.954 152.556 281.9 152.547L281.834 152.536L281.842 152.602L282.126 155.018L282.132 155.07L282.183 155.062L282.183 155.062L282.183 155.062L282.183 155.062L282.184 155.061L282.188 155.061L282.202 155.059C282.215 155.057 282.234 155.055 282.259 155.052C282.309 155.047 282.381 155.04 282.472 155.034C282.653 155.024 282.906 155.02 283.193 155.045C283.705 155.091 284.32 155.229 284.836 155.587C284.777 155.573 284.71 155.556 284.635 155.538C284.372 155.474 284.021 155.393 283.667 155.326C283.314 155.258 282.955 155.204 282.68 155.194C282.542 155.189 282.422 155.194 282.331 155.216C282.245 155.237 282.164 155.28 282.149 155.365L282.148 155.365V155.374C282.148 155.389 282.152 155.422 282.157 155.461C282.163 155.503 282.171 155.557 282.181 155.619C282.2 155.743 282.226 155.899 282.251 156.053C282.277 156.207 282.303 156.358 282.322 156.471L282.346 156.606L282.352 156.644L282.354 156.654L282.354 156.657L282.354 156.657L282.355 156.657L282.355 156.658L282.404 156.649ZM282.404 156.649L282.411 156.698L282.363 156.706L282.355 156.658L282.404 156.649Z" fill="#57BD7B" stroke="#FFFCFF" stroke-width="0.1"/>
<path opacity="0.1" d="M137.603 137.063C137.603 137.063 133.071 149.556 142.429 150.697C142.859 150.908 143.345 150.978 143.816 150.897C144.288 150.816 144.722 150.588 145.057 150.246C145.057 150.246 144.4 150.029 145.007 148.81C145.217 148.375 145.376 147.918 145.48 147.446C145.623 146.811 145.554 146.146 145.286 145.553C145.286 145.553 144.868 141.539 139.429 138.416C139.429 138.416 138.46 137.007 138.12 136.952L138.404 139.373C138.404 139.373 140.169 139.095 141.283 140.053C141.283 140.053 138.499 139.301 138.427 139.735C138.427 139.819 138.633 141.01 138.633 141.01C138.633 141.01 141.706 140.543 143.387 142.079C143.387 142.079 140.169 140.732 138.71 141.461L139.145 143.232C139.145 143.232 142.368 142.58 144.35 144.256C144.35 144.256 140.937 142.964 139.267 143.616L139.93 145.286C139.93 145.286 143.086 144.729 144.723 146.121C144.723 146.121 140.631 145.008 140.108 145.665C140.393 146.313 140.756 146.924 141.188 147.485C141.188 147.485 143.465 147.129 144.345 148.042C144.345 148.042 141.533 147.602 141.433 147.892C141.433 147.892 142.869 149.617 144.061 150.118C142.943 149.721 141.947 149.04 141.171 148.142C141.097 148.87 141.239 149.604 141.578 150.252C141.578 150.252 140.364 149.695 140.832 147.719C140.832 147.719 139.763 146.333 139.757 146.049C139.757 146.049 139.028 147.925 139.2 149.25C139.2 149.25 138.304 147.864 139.568 145.609L138.861 143.939C138.861 143.939 137.747 146.372 137.831 147.563C137.831 147.563 137.14 146.01 138.722 143.499L138.276 141.767C137.694 142.819 137.25 143.942 136.957 145.108C136.957 145.108 136.628 143.532 138.165 141.244L138.009 140.053C138.009 140.053 137.224 141.545 137.04 141.99C136.857 142.436 136.717 142.43 136.717 142.43C136.846 141.376 137.266 140.379 137.931 139.552C137.931 139.552 137.758 137.063 137.603 137.063Z" fill="#499F68"/>
<path d="M266.195 216.509L266.226 216.49C266.244 216.477 266.265 216.478 266.278 216.48C266.292 216.483 266.305 216.488 266.316 216.494C266.339 216.506 266.366 216.525 266.394 216.548C266.452 216.595 266.525 216.666 266.608 216.751C266.774 216.922 266.983 217.157 267.188 217.394C267.392 217.632 267.593 217.872 267.742 218.052C267.817 218.142 267.879 218.218 267.922 218.271L267.972 218.332L267.985 218.348L267.989 218.352L267.99 218.354L267.99 218.354L267.99 218.354L267.951 218.385L267.99 218.354L268.002 218.369L268.001 218.388C267.939 219.401 268.15 220.411 268.611 221.314C268.621 221.24 268.619 221.11 268.57 220.89C268.517 220.652 268.434 220.113 268.366 219.637C268.331 219.399 268.3 219.175 268.277 219.011L268.251 218.815L268.244 218.762L268.242 218.748L268.241 218.744L268.241 218.743L268.241 218.743L268.241 218.743L268.291 218.736L268.241 218.743L268.22 218.586L268.327 218.702L269.146 219.587L269.159 219.601L269.159 219.62C269.189 220.982 269.498 221.939 269.798 222.553C269.946 222.857 270.092 223.078 270.202 223.223C269.817 222.174 269.56 221.083 269.438 219.972L269.424 219.847L269.52 219.928L270.884 221.086L270.9 221.1L270.901 221.122C270.979 222.594 271.38 223.543 271.759 224.123C271.934 224.391 272.105 224.58 272.238 224.706C272.121 224.508 272.012 224.275 271.912 224.026C271.76 223.647 271.627 223.231 271.517 222.844C271.407 222.457 271.32 222.099 271.261 221.838C271.231 221.708 271.209 221.601 271.193 221.528C271.186 221.491 271.18 221.462 271.176 221.442L271.171 221.42L271.17 221.414L271.17 221.413L271.17 221.412L271.17 221.412L271.219 221.403L271.17 221.412L271.148 221.299L271.246 221.361L272.788 222.335L272.808 222.348L272.811 222.372C272.946 223.648 273.392 224.436 273.8 224.904C274.005 225.138 274.2 225.293 274.344 225.389C273.973 224.907 273.684 224.279 273.481 223.748C273.364 223.44 273.275 223.163 273.215 222.963C273.185 222.864 273.163 222.783 273.147 222.727C273.14 222.699 273.134 222.677 273.13 222.662L273.126 222.646L273.125 222.641L273.125 222.64L273.125 222.64L273.125 222.64L273.173 222.628L273.125 222.64L273.213 222.598C273.228 222.618 273.265 222.648 273.327 222.684C273.387 222.719 273.465 222.758 273.554 222.798C273.734 222.879 273.957 222.965 274.176 223.044C274.395 223.123 274.609 223.195 274.768 223.247C274.847 223.273 274.913 223.294 274.959 223.309L275.012 223.326L275.026 223.33L275.03 223.331L275.03 223.331L275.031 223.331L275.031 223.331L275.016 223.379L275.031 223.332L275.053 223.339L275.062 223.361C275.436 224.288 275.945 224.686 276.354 224.855C276.56 224.94 276.742 224.968 276.872 224.974C276.885 224.975 276.897 224.975 276.908 224.976C276.319 224.637 275.831 224.147 275.496 223.554L275.438 223.453L275.551 223.481C276.438 223.702 277.357 223.74 278.254 223.596C277.784 223.598 277.284 223.545 276.847 223.479C276.496 223.426 276.184 223.364 275.96 223.316C275.848 223.292 275.758 223.271 275.696 223.256C275.665 223.249 275.641 223.243 275.624 223.239L275.606 223.234L275.601 223.233L275.6 223.233L275.599 223.233L275.599 223.233L275.612 223.184L275.599 223.233L275.571 223.226L275.564 223.198C275.553 223.161 275.565 223.124 275.582 223.094C275.599 223.063 275.626 223.031 275.658 222.998C275.723 222.932 275.819 222.856 275.933 222.775C276.162 222.614 276.475 222.427 276.789 222.251C277.103 222.074 277.42 221.906 277.658 221.783C277.756 221.732 277.841 221.689 277.907 221.655C277.659 221.642 277.394 221.696 277.129 221.791C276.806 221.908 276.486 222.084 276.203 222.269C275.92 222.454 275.675 222.646 275.501 222.792C275.413 222.865 275.344 222.926 275.296 222.969C275.272 222.991 275.254 223.008 275.242 223.019L275.228 223.032L275.224 223.036L275.223 223.037L275.223 223.037L275.223 223.037L275.189 223.001L275.223 223.037L275.202 223.057L275.174 223.048C274.493 222.84 273.84 222.549 273.231 222.181L273.205 222.165L273.207 222.134C273.215 222.013 273.294 221.889 273.41 221.768C273.527 221.646 273.691 221.518 273.882 221.391C274.266 221.136 274.771 220.874 275.272 220.639C275.773 220.404 276.273 220.195 276.647 220.045C276.807 219.981 276.944 219.927 277.048 219.887C276.06 219.873 275.071 220.35 274.307 220.855C273.895 221.127 273.551 221.405 273.309 221.615C273.189 221.72 273.094 221.808 273.029 221.87C272.997 221.901 272.972 221.925 272.956 221.942L272.937 221.96L272.932 221.965L272.931 221.966L272.931 221.967L272.931 221.967L272.895 221.932L272.931 221.967L272.902 221.996L272.867 221.974L271.353 220.977L271.311 220.949L271.339 220.908C271.592 220.526 272.005 220.185 272.478 219.888C272.952 219.59 273.489 219.335 273.993 219.127C274.498 218.919 274.972 218.758 275.319 218.648C275.421 218.616 275.513 218.589 275.591 218.566C274.418 218.555 273.339 219.05 272.53 219.571C272.091 219.854 271.733 220.144 271.485 220.364C271.361 220.473 271.264 220.565 271.199 220.629C271.166 220.661 271.141 220.687 271.125 220.704L271.106 220.723L271.101 220.728L271.1 220.73L271.1 220.73L271.1 220.73L271.063 220.696L271.1 220.73L271.067 220.765L271.03 220.734L269.65 219.537L269.619 219.51L269.638 219.475C269.836 219.105 270.202 218.783 270.632 218.508C271.063 218.233 271.565 218.002 272.04 217.817C272.516 217.632 272.967 217.492 273.3 217.398C273.391 217.372 273.474 217.35 273.545 217.331C272.531 217.3 271.543 217.722 270.783 218.177C270.365 218.427 270.017 218.686 269.774 218.883C269.653 218.981 269.558 219.063 269.493 219.121C269.461 219.15 269.436 219.173 269.419 219.188L269.4 219.206L269.396 219.21L269.395 219.212L269.394 219.212L269.394 219.212L269.359 219.176M266.195 216.509L268.458 218.252M266.195 216.509L266.205 216.545L266.253 216.531C266.205 216.545 266.205 216.545 266.205 216.545L266.205 216.545L266.205 216.547L266.207 216.554L266.215 216.582C266.222 216.606 266.232 216.642 266.246 216.688C266.274 216.782 266.316 216.917 266.372 217.088C266.484 217.431 266.654 217.915 266.883 218.481C267.342 219.614 268.041 221.08 269.001 222.406C269.96 223.733 271.183 224.924 272.692 225.503C274.201 226.082 275.988 226.046 278.072 224.931M266.195 216.509L278.072 224.931M269.359 219.176L269.324 219.212L269.324 219.212L269.324 219.211L269.324 219.211L269.322 219.209L269.315 219.202L269.287 219.175L269.189 219.078C269.107 218.997 268.998 218.889 268.888 218.778C268.777 218.668 268.666 218.554 268.579 218.464C268.535 218.418 268.498 218.378 268.47 218.347C268.456 218.332 268.444 218.318 268.435 218.306C268.427 218.296 268.418 218.285 268.413 218.275M269.359 219.176L269.394 219.212L269.359 219.246L269.324 219.212L269.359 219.176ZM268.413 218.275C268.413 218.275 268.413 218.274 268.413 218.274L268.458 218.252M268.413 218.275C268.413 218.275 268.413 218.275 268.414 218.275L268.458 218.252M268.413 218.275C268.372 218.197 268.412 218.116 268.469 218.049C268.528 217.98 268.622 217.906 268.737 217.831C268.966 217.681 269.29 217.519 269.618 217.369C269.946 217.219 270.281 217.082 270.533 216.982C270.605 216.953 270.669 216.928 270.725 216.906M268.458 218.252C268.277 217.915 270.346 217.103 270.86 216.908C270.815 216.906 270.77 216.906 270.725 216.906M270.725 216.906C270.1 216.915 269.518 217.159 269.075 217.417C268.825 217.563 268.621 217.713 268.479 217.826C268.408 217.883 268.352 217.93 268.315 217.963C268.296 217.98 268.282 217.993 268.273 218.002L268.262 218.012L268.259 218.014L268.259 218.015L268.259 218.015L268.258 218.015L268.258 218.015L268.221 218.051L268.187 218.012L266.566 216.203L266.522 216.154L266.582 216.125C266.631 216.1 266.7 216.093 266.775 216.095C266.851 216.097 266.942 216.108 267.04 216.126C267.236 216.16 267.467 216.221 267.687 216.285C267.908 216.35 268.119 216.419 268.274 216.472C268.352 216.499 268.416 216.521 268.461 216.537L268.512 216.556L268.52 216.559L270.852 216.858C270.848 216.859 270.844 216.861 270.84 216.863C270.807 216.875 270.769 216.89 270.725 216.906ZM278.072 224.931C278.552 224.854 278.997 224.628 279.342 224.285C279.688 223.939 279.916 223.492 279.992 223.008L280.005 222.93L278.072 224.931ZM279.929 222.953L279.929 222.953L279.929 222.953ZM279.929 222.953L279.929 222.953M279.929 222.953L279.929 222.953M279.929 222.953L279.929 222.953L279.929 222.953Z" fill="#57BD7B" stroke="#FFFCFF" stroke-width="0.1"/>
<path d="M230.611 345.126C230.611 345.126 259.494 335.4 253.515 300.938L216.826 291.412L208.308 319.689L230.611 345.126Z" fill="#CED7E7"/>
<path opacity="0.1" d="M208.308 319.689L230.605 345.126C230.605 345.126 259.489 335.4 253.509 300.938L208.308 319.689Z" fill="black"/>
<path d="M86.9396 65.094C86.9396 65.094 90.8368 71.4352 96.1648 68.2674C101.493 65.0995 96.3819 56.3477 96.3819 56.3477C96.3819 56.3477 86.1769 54.9503 86.9396 65.094Z" fill="#FED253"/>
<path opacity="0.1" d="M96.1649 68.2673C95.5365 68.674 94.8315 68.9479 94.0934 69.0724C93.3553 69.1968 92.5995 69.1692 91.8725 68.9911C89.9183 68.4956 88.4152 66.9924 87.6079 66.007C87.3671 65.7183 87.144 65.4152 86.9398 65.0995C86.667 61.4807 87.7916 59.3261 89.3505 58.0568C91.4939 56.3142 94.4613 56.2418 95.7418 56.2975C96.1371 56.2975 96.3653 56.3532 96.3653 56.3532L96.4711 56.5313C96.6214 56.8153 96.9499 57.4444 97.3007 58.2851C98.4921 61.0409 99.9117 66.0348 96.1649 68.2673Z" fill="black"/>
<path d="M233.45 299.318L253.493 300.938L290.794 301.244L261.404 337.432C261.404 337.432 252.078 337.939 250.158 339.253C248.237 340.566 221.269 339.865 221.269 339.865L216.915 321.314L233.45 299.318Z" fill="#BD7373"/>
<path opacity="0.05" d="M233.45 299.318L253.493 300.938L290.794 301.244L261.404 337.432C261.404 337.432 252.078 337.939 250.158 339.253C248.237 340.566 221.269 339.865 221.269 339.865L216.915 321.314L233.45 299.318Z" fill="black"/>
<path d="M213.179 202.023L217.839 209.928L218.853 223.713C218.853 223.713 222.098 235.466 224.531 238.912C226.964 242.358 227.977 251.483 227.977 251.483C227.977 251.483 228.991 259.996 230.204 261.816C231.418 263.637 233.044 276.848 233.044 276.848C233.044 276.848 243.789 298.332 253.515 300.966C253.515 300.966 205.274 316.777 230.611 345.154C230.611 345.154 212.573 349.608 208.314 344.547C204.055 339.486 192.909 264.483 192.909 264.483L196.355 201.238L213.179 202.023Z" fill="#AAB0B8"/>
<path opacity="0.05" d="M213.179 202.023L217.839 209.928L218.853 223.713C218.853 223.713 222.098 235.466 224.531 238.912C226.964 242.358 227.977 251.483 227.977 251.483C227.977 251.483 228.991 259.996 230.204 261.816C231.418 263.637 233.044 276.848 233.044 276.848C233.044 276.848 243.789 298.332 253.515 300.966C253.515 300.966 205.274 316.777 230.611 345.154C230.611 345.154 212.573 349.608 208.314 344.547C204.055 339.486 192.909 264.483 192.909 264.483L196.355 201.238L213.179 202.023Z" fill="black"/>
<path d="M154.65 124.976C153.296 131.999 153.698 139.247 155.819 146.077L148.314 167.561C148.314 167.561 91.1541 135.738 96.02 128.033C98.7758 123.663 99.1266 112.099 98.9039 102.913C98.7424 95.9316 98.2469 90.3308 98.2469 90.3308C98.2469 90.3308 168.396 97.2288 159.059 113.24C156.946 116.88 155.456 120.846 154.65 124.976Z" fill="#BD7373"/>
<path opacity="0.1" d="M159.059 113.24C156.946 116.88 155.456 120.846 154.65 124.976C144.24 128.307 132.997 127.929 122.834 123.906C112.671 119.884 104.215 112.466 98.904 102.913C98.7426 95.9316 98.2471 90.3308 98.2471 90.3308C98.2471 90.3308 168.379 97.2288 159.059 113.24Z" fill="black"/>
<path d="M187.436 78.7786C187.441 86.2103 185.692 93.5383 182.332 100.167C178.971 106.795 174.094 112.538 168.097 116.926C162.1 121.315 155.151 124.227 147.817 125.425C140.482 126.623 132.968 126.073 125.886 123.821C118.804 121.568 112.354 117.676 107.059 112.462C101.764 107.247 97.7743 100.856 95.4142 93.8091C93.0542 86.7621 92.3903 79.2576 93.4765 71.9058C94.5627 64.5539 97.3684 57.562 101.665 51.4986C102.334 50.5595 103.037 49.6428 103.775 48.7483C107.984 43.6331 113.221 39.4601 119.147 36.5001C122.362 34.8917 125.753 33.6623 129.252 32.8368C135.569 31.3402 142.127 31.1595 148.518 32.306C154.908 33.4525 160.994 35.9017 166.397 39.5013C171.8 43.1008 176.405 47.7737 179.925 53.2292C183.445 58.6846 185.804 64.806 186.857 71.2126C187.25 73.7152 187.444 76.2452 187.436 78.7786Z" fill="#BD7373"/>
<path d="M206.081 272.973C205.374 276.748 206.259 283.646 207.601 290.666C207.657 290.972 207.718 291.279 207.779 291.585C207.84 291.891 207.929 292.364 208.007 292.748C208.625 295.766 209.299 298.756 209.956 301.472C210.613 304.189 211.203 306.516 211.704 308.432C212.461 311.299 212.979 313.103 212.979 313.103C212.979 313.103 213.046 314.873 213.135 317.69C213.185 319.316 213.241 321.298 213.296 323.486C213.296 324.12 213.335 324.766 213.352 325.434C213.38 326.598 213.408 327.806 213.436 329.042C213.436 329.443 213.436 329.844 213.463 330.25C213.463 331.581 213.513 332.939 213.536 334.292C213.564 336.151 213.586 338.011 213.597 339.815C213.597 340.505 213.597 341.184 213.597 341.852C213.597 343.578 213.597 345.232 213.597 346.752C213.536 351.066 213.363 354.323 212.996 355.264C212.868 355.587 212.751 355.938 212.639 356.305C212.157 358.033 211.807 359.796 211.593 361.578L210.646 360.804C208.837 359.312 207.044 357.786 205.224 356.305C202.198 353.77 198.986 351.467 195.614 349.413C195.386 349.279 195.158 349.146 194.924 349.018C194.301 348.656 193.666 348.316 193.02 347.993C191.69 347.323 190.326 346.72 188.934 346.189C182.503 343.74 175.617 342.849 168.635 342.999C165.851 344.063 164.042 344.825 164.042 344.825L160.501 345.894L159.911 346.073C156.075 347.242 150.68 348.901 148.737 349.591C145.597 350.705 118.334 356.378 118.334 356.378C115.843 357.058 113.299 357.523 110.729 357.77C106.049 359.086 101.286 360.083 96.4711 360.754C85.5298 362.152 74.4172 361.257 63.8408 358.126C63.5251 358.145 63.2084 358.135 62.8944 358.098C63.0892 358.098 63.2785 358.053 63.4511 358.02L62.7719 357.82L61.8421 357.53C60.2833 357.04 58.7374 356.504 57.2045 355.921L56.2748 355.565C54.7902 354.993 53.3371 354.379 51.9155 353.722L50.9858 353.299C49.5012 352.609 48.0481 351.879 46.6266 351.111C46.1144 350.844 45.6077 350.554 45.1067 350.281C43.5924 349.435 42.1077 348.548 40.6528 347.62C40.4078 345.521 40.2798 344.118 40.2798 344.118L38.1085 333.307L37.9972 332.75L36.4383 324.956L36.327 324.399L32.9364 307.441L32.8251 306.884L31.2662 299.09L31.1549 298.533L27.7198 281.586L27.6085 281.029L26.0496 273.235L25.9383 272.678L22.5311 255.698L22.4197 255.141L20.8609 247.374L20.7495 246.818L20.1315 243.756L19.2018 239.118C19.2018 239.118 16.2344 234.876 12.894 229.86L12.521 229.303C11.569 227.894 10.5891 226.43 9.63709 224.994C9.31975 224.521 9.01354 224.053 8.70734 223.591C8.24339 222.889 7.79429 222.204 7.36004 221.536L7.0594 221.074L6.99816 220.98C2.19911 213.553 5.41146 210.324 5.41146 210.324C5.41146 210.324 7.42685 207.596 10.0268 203.988C10.1548 203.804 10.2885 203.621 10.4276 203.431C11.5411 201.873 12.7659 200.169 13.9685 198.465L14.8982 197.14C15.249 196.645 15.5941 196.149 15.9282 195.659C16.0618 195.476 16.1899 195.286 16.3123 195.103C18.8789 191.395 20.9945 188.16 21.4287 187.013C22.108 185.204 26.4394 179.854 30.754 175.16C34.1557 171.452 37.5406 168.157 39.0605 167.366C42.5067 165.546 43.9264 159.661 43.9264 159.661C43.9264 159.661 51.4256 157.033 52.4389 155.007C53.4521 152.98 67.6433 143.872 67.6433 143.872C67.6433 143.872 73.3833 140.175 75.7048 137.948C76.0335 137.657 76.3202 137.322 76.5566 136.952C77.3639 135.504 82.6362 134.313 84.7796 133.884C85.3364 133.773 85.6815 133.711 85.6815 133.711C86.5469 132.139 87.6407 130.704 88.9273 129.452C89.8014 128.679 90.8926 126.012 91.8112 123.429C92.8077 120.611 93.5816 117.9 93.5816 117.9C95.2073 112.427 98.4475 114.048 98.4475 114.048C98.4431 114.795 98.5139 115.541 98.659 116.274C100.012 122.955 107.361 125.739 111.219 128.862C115.478 132.303 122.164 141.227 127.437 143.048C131.801 144.557 136.862 150.246 138.466 152.145L138.588 152.29C138.855 152.601 138.989 152.78 138.989 152.78C138.989 152.78 141.979 152.624 143.799 152.59H144.462C144.832 152.553 145.184 152.41 145.475 152.178C147.284 150.948 149.979 147.34 151.154 146.511C152.568 145.492 153.993 129.074 153.993 129.074L154.065 129.04C159.115 126.674 164.532 150.358 164.532 150.358C164.532 150.358 174.058 153.197 174.87 155.224C175.026 155.625 175.745 156.337 176.825 157.2C181.742 160.958 186.977 164.283 192.469 167.138C192.591 167.199 192.708 167.26 192.831 167.31C192.941 167.37 193.055 167.424 193.17 167.472C193.376 167.572 193.577 167.661 193.766 167.745C194.067 167.878 194.345 167.99 194.601 168.079L194.935 168.196C195.733 168.461 196.485 168.85 197.162 169.348C197.363 169.493 197.563 169.643 197.758 169.805C198.516 170.436 199.213 171.136 199.84 171.898C199.935 172.009 200.024 172.126 200.113 172.237C200.536 172.766 200.915 173.29 201.226 173.774C201.738 174.521 202.205 175.298 202.624 176.101C202.624 176.101 210.93 190.292 213.569 191.907C216.208 193.521 217.828 209.951 217.828 209.951L208.92 242.971C208.92 242.971 208.503 251.322 207.723 259.84C207.289 264.617 206.738 269.477 206.081 272.973Z" fill="#ACB2BA"/>
<path d="M138.989 153.782C138.989 153.782 133.015 157.022 128.35 157.328C127.739 157.357 127.127 157.321 126.524 157.222C121.636 156.482 114.465 152.462 114.465 152.462L122.877 143.237L133.11 148.309L136.873 151.811L138.989 153.782Z" fill="#424B54"/>
<path opacity="0.1" d="M186.835 71.2124C186.623 71.5118 186.383 71.7896 186.117 72.0419C183.188 74.8256 177.988 73.6732 173.997 73.0274C170.528 72.4603 167.139 71.4809 163.903 70.1101C161.086 68.9075 157.706 67.4377 155.173 69.1636C154.199 69.8206 153.531 70.8728 152.518 71.4518C151.504 72.0308 150.213 72.0698 149.016 72.0865C145.119 72.0865 141.222 72.131 137.419 71.2514C131.746 69.9264 125.878 66.5915 120.483 68.7906C116.263 70.5054 113.975 75.0984 112.834 79.5133C112.277 81.679 111.865 83.9672 110.607 85.8044C109.348 87.6417 106.916 88.9444 104.844 88.0815C101.788 86.8066 101.337 81.6178 97.6515 81.3561C93.604 81.0722 93.6541 85.2533 94.8344 88.2763C96.5825 92.7302 98.8707 97.1841 98.9709 101.827C94.621 94.0362 92.5655 85.1728 93.0424 76.2623C93.5193 67.3519 96.5089 58.7585 101.666 51.4761C102.563 50.9204 103.265 50.0994 103.675 49.1267C103.717 48.9952 103.75 48.8614 103.776 48.7259C104.082 47.1726 103.219 45.5414 103.169 43.9157C102.974 39.9462 107.272 37.1792 111.214 36.6781C113.836 36.3441 116.519 36.6002 119.147 36.5167C120.471 36.4875 121.787 36.312 123.072 35.9933C125.289 35.3291 127.365 34.2628 129.196 32.8478C135.514 31.3511 142.072 31.1705 148.462 32.317C154.852 33.4635 160.938 35.9127 166.342 39.5123C171.745 43.1118 176.35 47.7846 179.869 53.2401C183.389 58.6956 185.749 64.817 186.801 71.2235L186.835 71.2124Z" fill="black"/>
<path d="M187.787 67.9333C187.509 69.0345 186.931 70.0368 186.116 70.8283C183.188 73.612 177.988 72.454 173.996 71.8081C170.527 71.2534 167.138 70.2814 163.903 68.9131C161.086 67.7161 157.706 66.2464 155.173 67.9722C154.199 68.6292 153.531 69.6814 152.517 70.2604C151.504 70.8394 150.213 70.8784 149.016 70.8895C145.118 70.9174 141.221 70.9396 137.419 70.06C131.746 68.7294 125.878 65.4001 120.483 67.5937C116.263 69.3084 113.975 73.907 112.833 78.3219C112.277 80.4876 111.865 82.7758 110.606 84.6075C109.348 86.4392 106.915 87.753 104.844 86.8901C101.788 85.6152 101.337 80.4264 97.6512 80.1647C93.6038 79.8808 93.6539 84.0619 94.8341 87.085C96.9052 92.3572 99.7223 97.6017 98.7981 103.191C97.8795 103.191 96.3596 103.158 95.4577 103.136C96.1592 101.939 94.823 100.513 93.4924 100.107C92.1618 99.7006 90.6085 99.7062 89.5953 98.7374C88.582 97.7687 88.5764 96.2711 88.6822 94.9294C88.9132 92.0616 89.6147 89.2515 90.7588 86.6117C91.4882 84.9415 92.4291 83.1321 91.8723 81.384C91.5381 80.5916 91.1358 79.8297 90.6698 79.1069C89.5118 76.88 89.7846 74.0963 90.7755 71.797C91.1987 70.8172 91.5049 69.893 91.8556 69.0133C92.2986 67.763 92.9396 66.5919 93.7541 65.5449C95.029 63.9582 96.2761 61.5698 94.8676 60.0944C94.5112 59.7214 95.2239 59.4653 94.9956 58.981C94.9553 58.8983 94.9271 58.8101 94.9121 58.7193C94.8466 58.1329 94.9884 57.542 95.3129 57.0491C95.3787 56.921 95.4512 56.7965 95.5301 56.6761C95.5941 56.5489 95.6666 56.4261 95.7472 56.3086C96.98 54.2503 98.6184 52.4641 100.563 51.0586C101.771 50.1846 103.185 49.3439 103.664 47.9298C104.221 46.2596 103.241 44.4836 103.157 42.7187C102.962 38.7492 107.26 35.9822 111.202 35.4812C115.144 34.9801 119.23 35.8097 123.072 34.7908C128.522 33.3545 132.353 28.5443 137.302 25.8441C140.009 24.3964 143.012 23.5866 146.08 23.4766C149.149 23.3666 152.202 23.9593 155.006 25.2094C160.785 27.8483 165.144 33.1819 171.179 35.1861C173.317 35.8987 175.633 36.1827 177.559 37.3629C179.786 38.7325 181.139 41.1265 182.297 43.487C184.062 47.0668 184.418 50.6634 185.638 54.4547C186.606 57.4611 187.948 61.3916 188.059 64.8545C188.122 65.8886 188.03 66.9263 187.787 67.9333Z" fill="#876262"/>
<g opacity="0.1">
<path opacity="0.1" d="M95.5916 60.9572C95.6807 60.6009 95.6895 60.2292 95.6173 59.8691C95.5451 59.509 95.3937 59.1694 95.1741 58.875C95.3188 59.3093 94.6897 59.5598 95.0349 59.9217C95.3099 60.2107 95.5022 60.5684 95.5916 60.9572Z" fill="black"/>
<path opacity="0.1" d="M95.1572 57.6003C95.0916 57.7947 95.0523 57.9969 95.0403 58.2016C95.1461 58.0235 95.2908 57.8397 95.1572 57.6003Z" fill="black"/>
<path opacity="0.1" d="M186.273 69.4697C183.339 72.2534 178.144 71.101 174.141 70.4496C170.675 69.8915 167.289 68.9137 164.059 67.5379C161.236 66.3353 157.862 64.8655 155.324 66.5914C154.355 67.2484 153.687 68.3006 152.668 68.8796C151.649 69.4586 150.363 69.4976 149.166 69.5087C145.269 69.5087 141.372 69.5588 137.564 68.6736C131.896 67.3486 126.028 64.0249 120.634 66.2128C116.414 67.9331 114.125 72.5262 112.984 76.9411C112.427 79.1068 112.021 81.395 110.757 83.2322C109.493 85.0695 107.06 86.3722 104.995 85.5148C101.938 84.2344 101.487 79.0511 97.8019 78.7895C94.9235 78.5835 94.1218 80.6434 94.3167 82.9316C94.4837 81.1834 95.4302 79.8361 97.8019 80.0032C101.487 80.2648 101.938 85.4536 104.995 86.7285C107.06 87.5915 109.499 86.2943 110.757 84.4459C112.015 82.5975 112.427 80.3205 112.984 78.1604C114.125 73.7455 116.414 69.1468 120.634 67.4321C126.028 65.2385 131.896 68.5456 137.564 69.8928C141.35 70.7781 145.28 70.7502 149.166 70.7224C150.363 70.7224 151.627 70.689 152.668 70.0988C153.709 69.5087 154.338 68.4676 155.324 67.8051C157.862 66.0848 161.236 67.5546 164.059 68.7515C167.29 70.1267 170.675 71.1062 174.141 71.6688C178.144 72.3146 183.339 73.4782 186.273 70.6834C187.865 69.1635 188.344 66.9644 188.238 64.5593C188.149 66.4689 187.592 68.2004 186.273 69.4697Z" fill="black"/>
<path opacity="0.1" d="M103.352 41.7109C103.322 41.9882 103.31 42.2672 103.319 42.546C103.375 43.704 103.814 44.8621 103.954 45.9922C104.16 44.606 103.519 43.1584 103.352 41.7109Z" fill="black"/>
<path opacity="0.1" d="M92.0396 81.2113C92.0855 81.3778 92.1208 81.547 92.1454 81.718C92.2356 81.1437 92.1995 80.5566 92.0396 79.9977C91.7077 79.2024 91.3052 78.4385 90.837 77.715C90.4188 76.8915 90.1707 75.9921 90.1077 75.0706C89.9945 76.4009 90.2467 77.7368 90.837 78.9343C91.3063 79.6552 91.7088 80.4173 92.0396 81.2113Z" fill="black"/>
<path opacity="0.1" d="M98.9487 101.799L95.6918 101.749C95.7677 101.946 95.7982 102.157 95.7808 102.368C95.7635 102.578 95.6988 102.781 95.5916 102.963C96.5102 102.963 98.0356 102.996 98.932 103.019C99.0877 102.066 99.1418 101.099 99.0934 100.135C99.0808 100.692 99.0324 101.248 98.9487 101.799Z" fill="black"/>
<path opacity="0.1" d="M93.6207 98.7207C92.2901 98.3199 90.7424 98.3143 89.7514 97.34C89.168 96.7019 88.8391 95.8718 88.8272 95.0073C88.7437 96.2878 88.8272 97.6685 89.7514 98.5593C90.7424 99.5336 92.2901 99.5391 93.6207 99.94C94.0536 100.066 94.4562 100.279 94.8037 100.566C95.1513 100.853 95.4364 101.209 95.6416 101.61C96.2039 100.458 94.9123 99.1049 93.6207 98.7207Z" fill="black"/>
</g>
<path opacity="0.1" d="M194.907 349.018C194.284 348.656 193.649 348.316 193.003 347.993C191.673 347.323 190.309 346.721 188.917 346.19C182.487 343.74 175.6 342.849 168.618 343C165.835 344.063 164.025 344.826 164.025 344.826L160.484 345.895L159.894 346.073C159.855 345.683 159.811 345.293 159.772 344.898C159.733 344.503 159.688 344.124 159.644 343.734C158.397 331.926 157.417 319.795 157.417 319.795V309.317V308.098L157.35 277.227L156.793 267.05L156.532 262.546L156.481 261.688L156.381 259.929L156.326 258.882C156.203 258.551 156.099 258.213 156.014 257.869C155.975 257.73 155.936 257.574 155.902 257.413C155.763 256.856 155.613 256.138 155.457 255.358C154.438 250.236 153.163 241.601 153.085 239.848C152.985 237.509 150.959 223.524 150.959 223.524C150.753 215.825 144.278 201.327 142.647 198.594C141.015 195.86 139.195 179.436 139.807 178.551C140.125 178.078 140.331 175.278 140.459 172.694C140.459 172.399 140.486 172.11 140.498 171.826C140.581 169.805 140.62 168.118 140.62 168.118L146.989 166.86L148.698 166.526L148.832 166.498L148.888 166.609C149.071 166.949 149.645 168.034 150.318 169.46C150.396 169.61 150.469 169.771 150.547 169.933C150.58 170.011 150.619 170.089 150.658 170.167C151.905 172.895 153.347 176.486 153.286 178.551C153.186 182.203 157.344 191.022 157.344 191.022C157.745 193.048 166.564 213.213 166.564 213.213C166.564 213.213 173.763 232.978 173.356 236.223C172.95 239.469 176.802 260.953 176.802 260.953L180.755 283.05C182.676 287.404 185.209 297.436 185.209 297.436L186.172 303.126L186.356 304.212L188.922 319.394L190.181 326.832C190.181 326.832 190.71 330.785 191.511 335.183C191.578 335.578 191.656 335.979 191.734 336.38C192.228 339.275 192.929 342.131 193.833 344.926C194.281 346.265 194.64 347.632 194.907 349.018Z" fill="black"/>
<path d="M195.598 349.413C195.37 349.279 195.141 349.146 194.907 349.018C194.284 348.656 193.649 348.316 193.003 347.993C191.673 347.323 190.309 346.721 188.917 346.19C182.487 343.74 175.6 342.849 168.618 342.999C165.835 344.063 164.025 344.826 164.025 344.826L160.485 345.894C160.44 345.505 160.401 345.115 160.357 344.72C160.312 344.324 160.279 344.007 160.245 343.651C158.998 331.87 158.018 319.795 158.018 319.795V309.217V307.998L157.951 277.204L157.395 267.484L157.283 265.469L157.205 264.104L157.105 262.301L157.005 260.469L156.933 259.15V258.86C156.933 258.832 156.933 258.799 156.894 258.765C156.788 258.465 156.66 258.008 156.521 257.429L156.454 257.151C156.426 257.023 156.393 256.884 156.365 256.744C155.318 251.996 153.781 241.757 153.698 239.836C153.598 237.498 151.571 223.513 151.571 223.513C151.365 215.813 144.89 201.316 143.259 198.582C141.628 195.849 139.813 179.425 140.42 178.54C140.771 177.983 140.977 174.604 141.11 171.815C141.11 171.592 141.11 171.375 141.11 171.169C141.183 169.448 141.21 168.107 141.21 168.107L147.134 166.938L148.637 166.642L148.871 166.598L149.428 166.487C149.428 166.487 150.157 167.834 151.031 169.688L151.143 169.922C152.417 172.672 153.926 176.413 153.882 178.54C153.781 182.192 157.94 191.011 157.94 191.011C158.341 193.037 167.16 213.202 167.16 213.202C167.16 213.202 174.358 232.966 173.952 236.212C173.546 239.458 177.398 260.942 177.398 260.942L181.351 283.039C183.272 287.393 185.805 297.425 185.805 297.425L186.701 302.725L186.885 303.8L188.906 315.781L190.771 326.821C190.771 326.821 191.328 330.757 192.096 335.172C192.168 335.573 192.241 335.973 192.319 336.38C192.812 339.288 193.513 342.157 194.418 344.965C194.911 346.419 195.305 347.905 195.598 349.413Z" fill="#424B54"/>
<path d="M190.576 63.4794C190.576 63.4794 188.449 66.2186 186.528 66.2186C184.608 66.2186 177.131 65.9124 173.234 64.6987C169.336 63.485 150.229 62.5664 150.229 62.5664C150.229 62.5664 123.172 62.6666 122.259 61.7536C121.346 60.8405 105.434 55.9747 103.814 56.2809C103.475 56.3477 102.645 56.4924 101.537 56.6761L100.268 56.8821C98.3472 57.1883 95.9477 57.5446 93.7541 57.8063C91.0428 58.1236 88.66 58.2851 87.9028 58.0067V55.674C87.9028 55.674 91.0428 51.1088 91.2432 49.8005C91.4437 48.4921 94.0826 29.5242 100.975 22.7376C103.822 17.2944 108.43 12.9769 114.047 10.4894C123.372 6.43079 132.698 2.99017 132.698 2.99017L134.329 2.75634L139.59 1.97691C139.75 1.81771 139.923 1.67243 140.108 1.54266C141.567 0.429191 145.987 -1.99261 151.749 3.21287L152.768 4.83854C152.768 4.83854 170.5 8.99178 178.706 23.4836C186.913 37.9754 187.325 52.1666 187.931 58.6525C187.931 58.6525 187.525 60.4786 188.338 61.1857C188.632 61.4456 188.913 61.7207 189.179 62.0097C189.251 62.082 189.323 62.1544 189.39 62.2324C189.624 62.4662 189.841 62.7111 190.019 62.9116C190.04 62.9272 190.059 62.946 190.075 62.9672C190.118 63.02 190.165 63.0702 190.214 63.1176L190.576 63.4794Z" fill="#FFBF00" fill-opacity="0.99"/>
<path opacity="0.05" d="M190.576 63.4793C190.576 63.4793 188.449 66.2185 186.529 66.2185C184.608 66.2185 177.131 65.9123 173.234 64.6986C169.337 63.4849 150.229 62.5663 150.229 62.5663C150.229 62.5663 123.172 62.6665 122.259 61.7535C121.346 60.8404 105.435 55.9745 103.814 56.2807C103.475 56.3476 102.645 56.4923 101.537 56.676L101.248 54.8945L101.176 54.4547C101.176 54.4547 131.885 47.8685 152.356 51.3202C172.827 54.772 187.932 58.6135 187.932 58.6135C187.932 58.6135 187.525 60.4396 188.338 61.1466C188.632 61.4066 188.913 61.6816 189.179 61.9706C189.251 62.043 189.323 62.1153 189.39 62.1933C189.624 62.4271 189.841 62.6721 190.019 62.8725C190.041 62.8881 190.059 62.9069 190.075 62.9282C190.119 62.9808 190.165 63.031 190.214 63.0785L190.576 63.4793Z" fill="black"/>
<path opacity="0.1" d="M187.787 67.9332C183.995 68.2283 177.008 67.3041 173.952 66.8532C173.083 66.7251 172.232 66.5692 171.374 66.3799C168.095 65.6673 158.013 63.6686 151.888 64.5928C144.489 65.7063 123.612 63.6798 123.612 63.6798C123.612 63.6798 110.74 61.0464 105.568 58.9197C103.67 58.1347 100.496 57.8897 97.3396 58.2794C96.5346 58.3798 95.7354 58.5229 94.9456 58.7081C90.6365 59.7269 87.001 62.0485 87.6301 66.0069C87.3893 65.7182 87.1662 65.4152 86.962 65.0994C86.6892 61.4807 87.8138 59.3261 89.3727 58.0567L89.7401 57.9064C91.6444 57.3653 93.5824 56.9506 95.5413 56.6649C95.8475 56.6148 96.1649 56.5703 96.4878 56.5313C102.027 55.7853 110.039 55.6182 116.797 59.0199C116.797 59.0199 123.077 61.965 127.336 61.965C131.595 61.965 166.252 62.2712 174.364 64.5984C175.979 65.0649 177.625 65.4129 179.291 65.6395C182.248 66.0207 185.253 65.7374 188.087 64.8099C188.145 65.8602 188.044 66.9133 187.787 67.9332Z" fill="black"/>
<path opacity="0.1" d="M190.576 63.4793C190.576 63.4793 188.449 66.2184 186.528 66.2184C184.608 66.2184 177.131 65.9122 173.234 64.6985C169.336 63.4848 150.229 62.5662 150.229 62.5662C150.229 62.5662 123.172 62.6664 122.259 61.7534C121.346 60.8404 105.434 55.9745 103.814 56.2807C103.475 56.3475 102.645 56.4923 101.537 56.676L100.268 56.882C98.0632 56.8707 95.8687 57.1821 93.7541 57.8061C91.0428 58.1235 88.66 58.2849 87.9028 58.0066V57.5445C88.4866 57.2057 89.0952 56.9117 89.7234 56.6648C93.4802 55.6128 97.3488 55.011 101.248 54.8722C106.108 54.694 111.792 55.2619 116.786 57.7783C116.786 57.7783 123.066 60.7234 127.325 60.7234C131.584 60.7234 166.241 61.0241 174.353 63.3568C175.968 63.819 177.615 64.165 179.28 64.3923C182.933 64.8527 186.643 64.32 190.019 62.8502C190.04 62.8658 190.059 62.8846 190.075 62.9058C190.118 62.9585 190.165 63.0087 190.214 63.0562L190.576 63.4793Z" fill="black"/>
<path d="M87.708 65.9123C87.708 65.9123 80.9158 60.7402 89.7345 57.294C89.7345 57.294 105.139 52.5339 116.797 58.4075C116.797 58.4075 123.077 61.3415 127.336 61.3415C131.595 61.3415 166.252 61.6477 174.364 63.9804C175.979 64.4431 177.626 64.7892 179.291 65.0159C183.606 65.5392 187.978 64.7084 191.801 62.6386C192.357 62.3324 192.859 62.1766 193.009 62.3547C193.515 62.9671 193.115 66.5135 188.655 67.2206C185.176 67.7773 177.27 66.7251 173.946 66.2407C173.083 66.1127 172.226 65.9512 171.374 65.7675C168.095 65.0549 158.012 63.0562 151.861 63.9804C144.467 65.0939 123.584 63.0673 123.584 63.0673C123.584 63.0673 110.718 60.434 105.546 58.3017C100.374 56.1694 85.7817 58.0066 87.708 65.9123Z" fill="#FFBF00" fill-opacity="0.73"/>
<path opacity="0.1" d="M144.968 11.5695C144.411 10.7678 137.257 5.03898 134.34 2.72296L139.601 1.94353C139.761 1.78432 139.934 1.63905 140.119 1.50928C143.944 5.52334 144.968 11.5695 144.968 11.5695Z" fill="black"/>
<path opacity="0.1" d="M121.764 42.2957L119.431 45.7419L128.35 45.4412L128.55 41.5886L121.764 42.2957Z" fill="black"/>
<path opacity="0.1" d="M176.184 46.4543L177.198 49.5943L182.876 50.5074L180.443 46.755L176.184 46.4543Z" fill="black"/>
<path opacity="0.1" d="M78.689 151.867C79.2958 152.88 99.2603 179.147 104.533 178.417C109.805 177.688 78.689 151.867 78.689 151.867Z" fill="black"/>
<path opacity="0.1" d="M145.581 175.873C145.581 175.873 150.446 180.538 149.734 182.359C149.021 184.18 145.581 175.873 145.581 175.873Z" fill="black"/>
<path opacity="0.1" d="M92.4736 207.902C92.4736 207.902 88.2146 227.866 90.4471 228.501C92.6796 229.136 92.4736 207.902 92.4736 207.902Z" fill="black"/>
<path opacity="0.1" d="M147.201 285.433C147.908 287.459 153.787 300.637 155.106 301.344C156.426 302.051 147.201 285.433 147.201 285.433Z" fill="black"/>
<path opacity="0.1" d="M215.512 231.313C215.306 232.02 210.24 236.179 211.353 237.698C212.467 239.218 215.512 231.313 215.512 231.313Z" fill="black"/>
<path opacity="0.1" d="M176.184 268.302C176.084 268.814 175.071 279.437 176.997 281.48C178.924 283.523 176.184 268.302 176.184 268.302Z" fill="black"/>
<path opacity="0.1" d="M228.117 323.486C226.647 324.304 225.127 325.095 223.579 325.852C221.909 326.665 220.239 327.439 218.535 328.168C217.856 328.463 217.177 328.752 216.503 329.031C215.479 329.454 214.465 329.86 213.463 330.25C210.418 331.441 207.484 332.477 204.873 333.351C203.86 333.691 202.891 334.002 201.989 334.292C197.446 335.734 194.429 336.519 194.429 336.519C193.739 336.371 193.034 336.313 192.33 336.346C192.135 336.346 191.934 336.346 191.728 336.346C190.785 336.415 189.847 336.534 188.917 336.703C182.698 337.816 173.913 340.939 168.618 342.983C165.835 344.046 164.025 344.809 164.025 344.809L160.484 345.878L159.894 346.056C156.058 347.225 150.664 348.884 148.721 349.574C145.581 350.688 118.317 356.361 118.317 356.361C115.827 357.041 113.282 357.506 110.712 357.753C104.379 358.334 98.0137 358.479 91.6608 358.187C85.2806 358.599 74.9587 357.196 68.9515 356.25L67.994 356.099C65.6724 355.721 64.197 355.448 64.197 355.448L64.9765 354.373L80.9603 332.321L81.055 332.187L95.9476 311.65L96.5044 310.903L97.8572 309.038C97.8572 309.038 98.6701 307.925 101.799 307.853C102.166 307.853 102.567 307.853 103.007 307.853C105.635 308.064 108.228 308.593 110.729 309.428L111.453 309.645C122.237 312.735 138.905 311.961 138.905 311.961C138.905 311.961 149.277 310.291 157.428 309.289L158.035 309.211C160.698 308.835 163.38 308.602 166.068 308.515C171.035 308.615 181.779 305.982 181.779 305.982C184.09 305.486 185.064 305.069 186.367 304.139C186.54 304.017 186.723 303.883 186.924 303.738C187.48 303.321 188.121 302.809 188.945 302.174C190.448 301.021 192.558 299.457 195.876 297.263C196.166 297.074 196.472 296.885 196.8 296.707C197.129 296.529 197.546 296.289 197.947 296.089C201.161 294.567 204.549 293.445 208.035 292.748C210.927 292.127 213.862 291.723 216.815 291.54H217.255C225.606 291.095 234.135 292.526 239.123 297.219C239.995 298.044 240.755 298.98 241.384 300.003C241.688 300.488 241.96 300.994 242.196 301.517C242.651 302.514 242.99 303.56 243.204 304.635C243.245 304.835 243.278 305.035 243.304 305.236C243.304 305.297 243.304 305.353 243.304 305.414C243.304 305.576 243.338 305.737 243.349 305.898C243.794 312.563 236.88 318.586 228.117 323.486Z" fill="black"/>
<path d="M64.197 354.251C64.197 354.251 82.2352 357.591 91.6608 356.985C91.6608 356.985 108.992 357.898 118.317 355.164C118.317 355.164 145.597 349.485 148.721 348.372C151.844 347.258 164.025 343.606 164.025 343.606C164.025 343.606 187.742 333.674 194.429 335.294C194.429 335.294 246.929 321.715 243.176 303.371C239.424 285.027 206.287 289.185 195.854 296.072C185.421 302.959 186.946 303.677 181.768 304.791C181.768 304.791 171.023 307.424 166.057 307.324C161.091 307.224 138.894 310.77 138.894 310.77C138.894 310.77 121.463 311.583 110.723 308.237C99.984 304.891 97.8517 307.83 97.8517 307.83L64.197 354.251Z" fill="#BD7373"/>
<path opacity="0.1" d="M103.313 306.639C103.316 306.661 103.316 306.684 103.313 306.706C103.274 307.12 103.167 307.524 102.996 307.903C100.858 313.147 88.7213 327.294 88.7213 327.294C88.1679 328.974 87.5001 330.615 86.7226 332.204C85.0502 335.601 83.124 338.868 80.9604 341.975C77.7532 346.624 74.2516 351.063 70.4771 355.264H70.4492C69.9689 355.621 69.4689 355.95 68.9516 356.25C67.6433 357.029 65.678 357.992 63.8241 358.109C63.5084 358.128 63.1917 358.119 62.8776 358.081C63.0725 358.081 63.2618 358.037 63.4344 358.003L62.7551 357.803L61.8254 357.514C60.2665 357.024 58.7207 356.487 57.1878 355.905L56.258 355.548C54.7734 354.977 53.3203 354.362 51.8988 353.705L50.9691 353.282C49.4844 352.592 48.0314 351.863 46.6098 351.094C46.0976 350.827 45.591 350.538 45.0899 350.265C43.5756 349.419 42.091 348.532 40.6361 347.604C39.092 346.62 37.5814 345.594 36.1042 344.525C34.9908 342.459 34.0721 340.628 33.5711 339.642C32.658 337.811 32.5801 335.188 32.6914 333.29C32.6914 333.095 32.6914 332.911 32.7248 332.733C32.8195 331.542 32.9642 330.723 32.9642 330.723C32.1393 329.62 31.3951 328.459 30.7373 327.249C30.3594 326.649 30.1445 325.96 30.1138 325.251C30.1389 324.966 30.1125 324.68 30.0358 324.404C29.6071 322.645 27.7643 319.622 26.0607 317.724C24.7914 316.326 24.7134 311.104 24.8359 307.402C24.9083 305.175 25.0475 303.538 25.0475 303.538C24.798 303.377 24.6113 303.135 24.5186 302.853C24.0709 301.635 23.7682 300.368 23.6167 299.079C23.6167 298.895 23.5666 298.711 23.5387 298.522C23.1824 295.966 23.021 293.4 23.021 293.4C18.9011 290.399 16.9414 285.717 16.0284 281.541L15.9114 280.985C15.41 278.418 15.1971 275.804 15.2768 273.19C15.2768 272.94 15.2768 272.751 15.2768 272.634C15.2768 272.517 15.2768 272.494 15.2768 272.494C15.2768 272.494 15.8224 260.43 17.3478 255.72C17.4091 255.52 17.4759 255.336 17.5427 255.163C17.6551 254.868 17.8008 254.586 17.9769 254.323C18.5337 253.582 18.929 252.185 19.2574 250.531C19.4857 249.384 19.675 248.109 19.8142 246.84C19.9422 245.782 20.0424 244.73 20.1204 243.756C20.3375 241.15 20.4043 239.118 20.4043 239.118L19.3743 234.041C19.0904 232.655 18.8733 231.257 18.723 229.86C18.723 229.676 18.6784 229.492 18.6562 229.303C18.3958 226.722 18.3492 224.125 18.517 221.537C18.517 221.347 18.517 221.164 18.5504 220.98C18.9851 215.085 20.5263 209.324 23.0933 203.999L23.3717 203.443C23.7429 202.7 24.1326 201.971 24.5408 201.255C24.8359 200.726 25.1477 200.202 25.4706 199.685C26.3266 198.298 27.2558 196.958 28.2543 195.671C28.399 195.481 28.5493 195.298 28.6997 195.114C30.4369 192.96 32.3675 190.97 34.4674 189.168C40.0905 184.335 45.2514 182.237 49.9391 182.075C70.4381 181.351 81.9347 217.606 83.7942 223.958C83.9723 224.571 84.0614 224.905 84.0614 224.905C84.0614 224.905 92.3679 233.217 89.9349 236.863C89.4632 237.666 89.1761 238.564 89.0943 239.491C88.4262 244.396 90.3414 252.474 90.3414 252.474C90.3414 252.474 91.0206 254.701 93.0026 260.035L93.5871 261.594C94.8286 264.934 95.1181 270.54 94.4055 275.562C93.7207 280.372 92.1118 284.626 89.5341 285.717C84.2618 287.944 85.6815 290.171 86.8952 292.002C87.6164 293.315 88.2182 294.691 88.6934 296.111C89.4561 298.166 90.1632 300.326 90.4304 301.166C90.5084 301.4 90.5473 301.528 90.5473 301.528C91.2858 301.242 92.053 301.037 92.8355 300.916C93.8321 300.777 94.8175 300.877 95.0068 301.729C95.107 302.185 95.6804 302.725 96.4877 303.265C98.8817 304.913 103.313 306.639 103.313 306.639Z" fill="black"/>
<path d="M102.1 306.639C102.066 307.063 101.958 307.477 101.782 307.864C99.6556 313.114 87.5076 327.294 87.5076 327.294C86.9519 328.973 86.2841 330.614 85.5089 332.204C84.1654 334.948 82.6461 337.601 80.9604 340.149C77.4704 345.413 73.604 350.419 69.3914 355.125L69.2634 355.264C69.2634 355.264 68.7735 355.637 67.994 356.116C66.6013 357.005 65.0667 357.649 63.4567 358.02L62.7774 357.82L61.8477 357.53C60.2888 357.04 58.743 356.504 57.2101 355.921L56.2803 355.565C54.7957 354.993 53.3426 354.379 51.9211 353.722L50.9913 353.299C49.5067 352.609 48.0536 351.879 46.6321 351.111C46.1199 350.844 45.6133 350.554 45.1122 350.281C43.5979 349.435 42.1133 348.548 40.6583 347.62C39.1143 346.637 37.6037 345.61 36.1265 344.542C35.4436 344.052 34.7681 343.549 34.1 343.033C33.3484 341.608 32.7471 340.405 32.3741 339.659C31.4611 337.827 31.3831 335.205 31.4945 333.307C31.4945 333.112 31.4945 332.928 31.5279 332.75C31.6225 331.558 31.7673 330.74 31.7673 330.74C31.7673 330.74 31.3163 330.133 30.7707 329.309C30.4645 328.853 30.1361 328.324 29.841 327.801C29.2843 326.821 28.85 325.83 28.9335 325.267C28.9448 325.171 28.9448 325.074 28.9335 324.978C28.9251 324.79 28.8972 324.603 28.85 324.421C28.4213 322.662 26.573 319.639 24.8693 317.74C23.6 316.343 23.522 311.121 23.639 307.418C23.639 307.229 23.639 307.045 23.639 306.862C23.7169 304.941 23.8338 303.555 23.8338 303.555C23.2047 303.282 22.7203 301.261 22.4086 299.101L22.3251 298.544C21.9688 295.989 21.8073 293.422 21.8073 293.422C17.6875 290.421 15.7278 285.739 14.8203 281.564C14.1881 278.639 13.9447 275.644 14.0965 272.656C14.0965 272.567 14.0965 272.517 14.0965 272.517C14.0965 272.517 14.5753 260.391 16.1008 255.675C16.162 255.475 16.2288 255.291 16.2956 255.119C16.4292 254.83 16.5955 254.557 16.7911 254.306C17.6374 253.126 18.1997 250.286 18.5671 247.38L18.6339 246.823C19.096 242.926 19.224 239.101 19.224 239.101L18.1885 234.024C17.9064 232.632 17.6893 231.239 17.5371 229.843C17.5093 229.659 17.4926 229.47 17.4703 229.286C17.21 226.706 17.1634 224.108 17.3311 221.52C17.3311 221.33 17.3311 221.147 17.3701 220.963C17.8022 215.067 19.3435 209.306 21.9131 203.983C22.0022 203.793 22.0912 203.61 22.1914 203.426C22.9073 201.98 23.7028 200.575 24.5743 199.217C24.8749 198.744 25.1811 198.276 25.504 197.814C26.0107 197.079 26.5395 196.355 27.0907 195.654L27.5361 195.097C29.2585 192.952 31.1722 190.967 33.2538 189.168C39.3779 183.918 44.9452 181.891 49.9558 182.075C69.6921 182.782 80.7711 217.734 82.5916 223.958C82.7698 224.571 82.8589 224.905 82.8589 224.905C82.8589 224.905 91.1709 233.217 88.738 236.863C88.2663 237.666 87.9791 238.564 87.8973 239.491C87.2237 244.396 89.1444 252.474 89.1444 252.474C89.1444 252.474 89.8236 254.701 91.8056 260.035C91.9838 260.53 92.1786 261.048 92.3623 261.594C93.6039 264.934 93.8934 270.54 93.1807 275.562C92.496 280.378 90.8926 284.626 88.3093 285.717C83.0426 287.944 84.4567 290.171 85.6759 292.002C86.3972 293.315 86.999 294.691 87.4742 296.111C88.4374 298.733 89.3226 301.528 89.3226 301.528C89.6869 301.388 90.0586 301.267 90.436 301.166C91.2106 300.912 92.0307 300.826 92.8411 300.916C93.0654 300.933 93.2784 301.021 93.4494 301.167C93.6205 301.313 93.7408 301.51 93.7931 301.729C93.9435 302.397 95.0959 303.226 96.4933 304.011C98.3078 304.999 100.18 305.876 102.1 306.639Z" fill="#ACB2BA"/>
<path opacity="0.1" d="M28.8223 253.103C30.7486 253.003 51.4257 244.997 55.6847 247.731C59.9438 250.464 86.3052 268.202 86.3052 268.202C86.3052 268.202 69.7868 246.617 55.3952 241.551C41.0036 236.485 28.8223 253.103 28.8223 253.103Z" fill="black"/>
<path opacity="0.1" d="M58.5461 285.739C58.5461 285.739 79.2233 289.893 82.3633 292.732L58.5461 285.739Z" fill="black"/>
<path opacity="0.1" d="M54.5657 316.66C54.2651 316.967 46.7714 333.786 47.3727 333.786C47.974 333.786 54.3653 323.764 54.3653 323.764L54.5657 316.66Z" fill="black"/>
<path opacity="0.1" d="M68.6565 296.479C68.6565 296.479 62.577 298.611 63.284 298.811C63.9911 299.012 68.4505 297.392 68.6565 296.479Z" fill="black"/>
<path opacity="0.1" d="M62.5771 321.921C63.5904 324.048 66.8306 330.434 67.5432 329.421C68.2558 328.407 62.5771 321.921 62.5771 321.921Z" fill="black"/>
<path opacity="0.1" d="M138.471 153.353L137.603 154.589C137.603 154.589 130.705 149.729 127.871 147.296C125.037 144.863 118.345 156.009 113.073 159.049C107.801 162.088 98.8874 162.901 98.8874 162.901C98.8874 162.901 91.995 156.009 92.2065 153.993C92.4181 151.978 88.9663 151.36 88.7603 149.94C88.5544 148.521 87.3407 144.468 85.7206 142.441C84.8632 141.372 84.7407 138.026 84.8187 135.114C85.3754 135.003 85.7206 134.942 85.7206 134.942C86.5859 133.37 87.6797 131.934 88.9663 130.683C90.7924 129.063 93.6262 119.131 93.6262 119.131C95.2463 113.658 98.4865 115.278 98.4865 115.278C98.4865 123.59 107.005 126.63 111.258 130.076C115.511 133.522 122.203 142.441 127.476 144.267C131.802 145.743 136.862 151.449 138.471 153.353Z" fill="black"/>
<path d="M138.471 152.134L137.603 153.375C137.603 153.375 130.677 148.526 127.843 146.077C125.009 143.627 118.317 154.789 113.045 157.829C107.773 160.869 98.8595 161.687 98.8595 161.687C98.8595 161.687 91.9671 154.79 92.1787 152.78C92.3903 150.77 88.9385 150.146 88.7325 148.721C88.5265 147.296 87.3128 143.248 85.6927 141.222C84.8354 140.153 84.7129 136.807 84.7908 133.895L85.6927 133.728C86.5581 132.156 87.6519 130.721 88.9385 129.469C90.7646 127.844 93.5984 117.917 93.5984 117.917C95.2185 112.444 98.4587 114.059 98.4587 114.059C98.4587 122.371 106.977 125.416 111.23 128.862C115.484 132.309 122.176 141.222 127.448 143.048C131.802 144.546 136.862 150.23 138.471 152.134Z" fill="#ACB2BA"/>
<path opacity="0.1" d="M138.989 153.782C138.989 153.782 133.015 157.022 128.35 157.328C127.739 157.357 127.127 157.321 126.524 157.222C126.524 157.222 131.673 153.375 136.456 152.59L138.989 153.782Z" fill="black"/>
<path opacity="0.1" d="M151.154 170.3C151.154 170.3 143.621 167.366 141.132 171.781C141.216 169.755 141.249 168.073 141.249 168.073L149.461 166.448C149.461 166.448 150.252 167.912 151.176 169.883C151.154 170.144 151.154 170.3 151.154 170.3Z" fill="black"/>
<path d="M126.524 157.222C126.524 157.222 135.548 151.805 139.885 152.262C144.434 152.735 153.247 153.069 153.247 153.069C153.247 153.069 150.207 159.962 150.614 161.381C151.02 162.801 151.12 169.693 151.12 169.693C151.12 169.693 142.001 166.147 140.481 172.733C140.481 172.733 135.515 165.334 132.169 163.102C129.949 161.498 128.036 159.506 126.524 157.222Z" fill="#424B54"/>
<path opacity="0.1" d="M177.504 163.514C174.87 163.514 165.545 157.629 163.519 153.782C161.492 149.935 158.653 154.183 156.019 155.608C154.349 156.521 147.73 154.612 144.161 153.225C145.97 151.995 149.979 148.532 151.153 147.702C152.568 146.684 153.993 130.266 153.993 130.266C159.059 127.632 164.532 151.549 164.532 151.549C164.532 151.549 174.063 154.389 174.87 156.415C175.026 156.816 175.744 157.529 176.825 158.392C177.938 161.198 178.55 163.514 177.504 163.514Z" fill="black"/>
<path d="M177.504 162.294C174.87 162.294 165.545 156.415 163.519 152.568C161.492 148.721 158.653 152.969 156.019 154.389C154.349 155.302 149.044 153.537 145.475 152.162C147.284 150.937 149.979 147.329 151.154 146.494C152.568 145.481 153.993 129.063 153.993 129.063C159.059 126.43 164.532 150.347 164.532 150.347C164.532 150.347 174.063 153.186 174.87 155.213C175.026 155.614 175.745 156.326 176.825 157.189C177.938 159.978 178.55 162.294 177.504 162.294Z" fill="#ACB2BA"/>
<path d="M213.519 339.876L301.656 266.387C302.535 265.644 303.656 265.248 304.807 265.274L337.688 266.137C337.688 266.137 339.965 267.807 336.624 271.459L253.482 339.687C252.583 340.421 251.468 340.84 250.308 340.878L214.354 342.07C214.096 342.078 213.842 342.005 213.627 341.862C213.412 341.719 213.247 341.512 213.155 341.27C213.063 341.029 213.049 340.765 213.114 340.515C213.179 340.265 213.321 340.042 213.519 339.876Z" fill="#57BD7B"/>
<path d="M256.154 330.835C256.154 330.835 275.406 358.404 296.795 332.761C318.185 307.118 312 293.645 305.514 292.932C299.028 292.22 262.534 320.296 256.154 330.835Z" fill="#BD7373"/>
</svg>
