<svg width="643" height="522" viewBox="0 0 643 522" fill="none" xmlns="http://www.w3.org/2000/svg">
<g clip-path="url(#clip0)">
<path d="M433.211 479.405C403.283 479.485 373.384 477.528 343.722 473.547C342.754 473.424 341.773 473.286 340.797 473.141C333.517 472.106 326.232 470.924 319.15 469.626C287.282 463.805 257.229 455.301 229.828 444.352C138.642 407.915 81.31 415.67 49.2717 428.591C14.5993 442.575 1.2711 465.454 1.14047 465.683L0 465.037C0.132229 464.804 13.6324 441.584 48.6835 427.416C69.2346 419.108 93.0757 415.478 119.55 416.622C152.597 418.051 189.863 426.972 230.315 443.135C257.635 454.052 287.604 462.532 319.386 468.338C326.451 469.632 333.718 470.812 340.986 471.844C341.957 471.989 342.93 472.125 343.895 472.249C424.3 483.297 501.865 476.635 552.779 469.1C594.744 462.89 621.751 455.629 622.019 455.557L622.362 456.821C622.094 456.894 595.019 464.174 552.971 470.396C513.322 476.295 473.297 479.306 433.211 479.405V479.405Z" fill="#424B54"/>
<path d="M433.3 103.437C410.184 103.437 387.679 102.357 365.966 100.196C316.071 95.2325 270.268 84.5223 229.828 68.3633C138.642 31.9265 81.31 39.6807 49.2717 52.6026C14.5993 66.586 1.2711 89.4651 1.14047 89.6945L0 89.0477C0.132229 88.8149 13.6324 65.5958 48.6835 51.4272C69.2349 43.1197 93.0757 39.4876 119.55 40.6332C152.597 42.0626 189.863 50.9829 230.315 67.1467C321.644 103.64 423.272 105.075 492.444 99.8558C567.42 94.1965 621.482 79.7142 622.019 79.5686L622.362 80.8326C621.824 80.9788 567.665 95.4893 492.572 101.16C472.465 102.678 452.668 103.437 433.3 103.437Z" fill="#424B54"/>
<path d="M429.904 7.27552C429.904 7.27552 404.124 -1.92217 387.551 34.8686C370.978 71.6593 345.197 112.129 345.197 112.129L359.929 115.808C359.929 115.808 363.612 90.0547 372.819 86.3756L369.136 119.487C369.136 119.487 479.624 158.118 529.343 115.808L527.502 102.931C527.502 102.931 534.868 104.771 534.868 115.808L540.392 110.29C540.392 110.29 534.868 99.2524 518.295 84.5361C507.417 74.877 503.679 56.5005 502.394 45.0113C501.432 35.4177 497.589 26.3386 491.371 18.9647C480.357 6.21381 460.289 -7.33859 429.904 7.27552Z" fill="#2F2E41"/>
<path d="M586.375 215.46C586.375 215.46 634.888 256.796 642.022 281.027C649.157 305.259 614.912 308.109 614.912 308.109L540.715 315.236C540.715 315.236 539.288 349.445 526.446 353.721C513.605 357.998 523.839 297.152 523.839 297.152L596.363 276.751L563.545 242.542L586.375 215.46Z" fill="#BD7373"/>
<path d="M359.504 258.221L353.796 333.766L322.405 462.05C322.405 462.05 293.868 520.49 318.124 521.915C342.381 523.341 340.954 466.326 340.954 466.326L386.614 345.169L390.895 262.498L359.504 258.221Z" fill="#BD7373"/>
<path d="M439.408 125.662C465.413 125.662 486.494 104.602 486.494 78.6245C486.494 52.6465 465.413 31.5872 439.408 31.5872C413.403 31.5872 392.321 52.6465 392.321 78.6245C392.321 104.602 413.403 125.662 439.408 125.662Z" fill="#BD7373"/>
<path d="M418.005 101.43C418.005 101.43 435.127 162.721 408.017 178.401C380.906 194.08 476.506 205.483 502.19 158.445C502.19 158.445 456.53 142.766 469.372 101.43H418.005Z" fill="#BD7373"/>
<path d="M385.187 185.528L376.626 182.677C376.626 182.677 359.503 189.804 359.503 202.632C359.503 215.46 356.649 266.774 356.649 266.774L395.175 271.05L385.187 185.528Z" fill="#575A89"/>
<path d="M552.875 469.748C500.201 477.543 423.429 483.838 343.812 472.899C343.806 472.113 343.806 471.347 343.806 470.6C343.806 466.152 343.976 461.755 344.317 457.408C348.396 403.878 376.001 359.251 386.683 343.786C387.221 343 387.719 342.292 388.165 341.663C389.889 339.246 390.893 337.969 390.893 337.969C390.893 337.969 473.651 336.62 516.456 353.723C518.52 354.588 520.409 355.822 522.03 357.364C537.99 372.076 547.367 419.841 552.875 469.748Z" fill="#2F2E41"/>
<path d="M522.166 165.572C522.166 165.572 540.715 155.595 559.264 176.975L596.363 219.736L567.825 251.095L513.604 218.311L522.166 165.572Z" fill="#575A89"/>
<path d="M388.527 78.9227C405.196 66.8718 418.689 52.9915 427.615 36.4803C427.615 36.4803 458.205 70.4343 476.899 72.132C495.594 73.8297 478.599 31.3872 478.599 31.3872L444.609 22.8987L412.319 26.2941L386.827 43.2711L388.527 78.9227Z" fill="#2F2E41"/>
<path d="M495.056 155.594C495.056 155.594 475.088 187.133 415.155 172.076L381.146 181.433L376.626 182.677C376.626 182.677 380.907 268.199 392.321 283.878C403.736 299.557 400.883 308.109 398.029 309.535C395.175 310.96 388.041 308.109 392.321 315.236C396.602 322.363 402.31 318.087 396.602 322.363C390.895 326.639 388.041 342.318 388.041 342.318L522.166 359.423C522.166 359.423 517.885 303.833 529.3 275.326C540.715 246.818 543.569 235.415 543.569 235.415L535.008 164.147L495.056 155.594Z" fill="#575A89"/>
<path d="M216.301 127.69H32.7002V356.952H216.301V127.69Z" fill="#FDFBFD"/>
<path d="M252.366 356.624C252.358 365.276 249.224 373.634 243.542 380.163C237.859 386.692 230.009 390.952 221.433 392.163C212.858 393.373 204.133 391.451 196.862 386.75C189.591 382.049 184.263 374.885 181.856 366.574C179.449 358.264 180.125 349.364 183.76 341.512C187.395 333.659 193.745 327.38 201.643 323.83C209.54 320.279 218.456 319.694 226.75 322.184C235.044 324.673 242.161 330.069 246.792 337.379C250.434 343.139 252.367 349.812 252.366 356.624V356.624Z" fill="#499F68"/>
<path d="M246.792 337.379L211.292 372.836C209.061 369.386 196.63 353.349 196.63 353.349C198.223 351.741 199.923 350.242 201.718 348.862L212.026 362.592L242.635 332.015C244.187 333.668 245.579 335.464 246.792 337.379V337.379Z" fill="white"/>
<path d="M51.8111 231.63C61.5593 228.53 71.6735 226.727 81.8927 226.268C87.0134 226.051 92.1434 226.251 97.2314 226.868C102.27 227.535 107.248 228.6 112.118 230.054C116.93 231.447 121.675 233.056 126.47 234.502C131.342 235.989 136.294 237.197 141.303 238.12C146.287 239.022 151.32 239.621 156.375 239.916C161.381 240.207 166.436 240.264 171.428 239.73C176.091 239.282 180.658 238.124 184.971 236.298C188.994 234.543 192.712 232.16 195.986 229.236C196.803 228.507 197.588 227.746 198.343 226.953C198.789 226.488 198.082 225.779 197.636 226.245C191.254 232.914 182.867 237.048 173.77 238.429C168.814 239.181 163.763 239.225 158.764 239.031C153.652 238.834 148.558 238.319 143.51 237.49C138.524 236.664 133.591 235.541 128.737 234.129C123.97 232.748 119.268 231.156 114.517 229.721C109.725 228.217 104.832 227.051 99.8763 226.234C94.9061 225.477 89.8823 225.129 84.8553 225.192C74.81 225.352 64.8292 226.83 55.1684 229.587C53.955 229.927 52.7472 230.287 51.545 230.665C50.9324 230.857 51.194 231.823 51.8111 231.63H51.8111Z" fill="#424B54"/>
<path d="M51.8111 256.808C61.5593 253.708 71.6735 251.906 81.8927 251.447C87.0134 251.229 92.1434 251.43 97.2314 252.047C102.27 252.713 107.248 253.778 112.118 255.233C116.93 256.625 121.675 258.234 126.47 259.68C131.342 261.167 136.294 262.375 141.303 263.298C146.287 264.2 151.32 264.8 156.375 265.094C161.381 265.385 166.436 265.442 171.428 264.909C176.091 264.46 180.658 263.303 184.971 261.477C188.994 259.722 192.712 257.338 195.986 254.414C196.803 253.685 197.588 252.924 198.343 252.131C198.789 251.666 198.082 250.957 197.636 251.424C191.254 258.092 182.867 262.227 173.77 263.607C168.814 264.36 163.763 264.403 158.764 264.209C153.652 264.012 148.558 263.497 143.51 262.669C138.524 261.842 133.591 260.719 128.737 259.307C123.97 257.926 119.268 256.335 114.517 254.899C109.725 253.395 104.832 252.23 99.8763 251.412C94.9061 250.656 89.8823 250.307 84.8553 250.37C74.81 250.531 64.8292 252.008 55.1684 254.765C53.955 255.105 52.7472 255.465 51.545 255.843C50.9324 256.035 51.194 257.001 51.8111 256.808H51.8111Z" fill="#424B54"/>
<path d="M51.8111 208.473C61.5593 205.536 71.6735 203.829 81.8927 203.394C87.0134 203.188 92.1434 203.378 97.2314 203.962C102.27 204.593 107.248 205.603 112.118 206.981C116.93 208.3 121.675 209.824 126.47 211.194C131.342 212.603 136.294 213.747 141.303 214.622C146.287 215.476 151.32 216.044 156.375 216.323C161.381 216.599 166.436 216.652 171.428 216.147C176.091 215.722 180.658 214.626 184.971 212.896C188.994 211.233 192.712 208.975 195.986 206.205C196.803 205.515 197.588 204.794 198.343 204.042C198.789 203.601 198.082 202.93 197.636 203.372C191.254 209.689 182.867 213.606 173.77 214.914C168.814 215.627 163.763 215.668 158.764 215.485C153.652 215.298 148.558 214.81 143.51 214.025C138.524 213.242 133.591 212.178 128.737 210.84C123.97 209.532 119.268 208.024 114.517 206.665C109.725 205.239 104.832 204.136 99.8763 203.361C94.9061 202.644 89.8823 202.314 84.8553 202.374C74.81 202.526 64.8292 203.926 55.1684 206.537C53.955 206.86 52.7472 207.2 51.545 207.559C50.9324 207.741 51.194 208.656 51.8111 208.473H51.8111Z" fill="#424B54"/>
<path d="M51.1519 164.858C53.4998 163.739 56.1893 163.934 58.6259 164.583C61.2532 165.283 63.7273 166.5 66.3135 167.341C70.9429 168.826 75.8604 168.926 80.5388 167.632C83.1726 166.909 85.6859 165.749 87.9887 164.195C88.5162 163.838 88.0298 162.934 87.499 163.293C83.3942 166.052 78.6494 167.508 73.8101 167.493C71.3831 167.489 68.9694 167.107 66.6443 166.358C64.0768 165.529 61.6226 164.327 59.0217 163.613C56.2661 162.857 53.311 162.693 50.6622 163.956C50.0924 164.228 50.5855 165.128 51.1519 164.858V164.858Z" fill="#424B54"/>
<path d="M124.841 318.029C133.324 318.029 140.2 311.16 140.2 302.686C140.2 294.213 133.324 287.343 124.841 287.343C116.359 287.343 109.482 294.213 109.482 302.686C109.482 311.16 116.359 318.029 124.841 318.029Z" fill="#424B54"/>
</g>
<defs>
<clipPath id="clip0">
<rect width="643" height="521" fill="white" transform="translate(0 0.94165)"/>
</clipPath>
</defs>
</svg>
